[Module]
VortexTrackerII=0
Version=3.7
Title=Cheap Sunglasses
Author=zztop
ShowInfo=0
NoteTable=2
ChipFreq=1773400
IntFreq=50000
Speed=5
Noise=HEX
PlayOrder=L0,1,2,3,4,5,6,7,8,9,10,11,12,13,14,15,16


[Ornament1]
L0

[Ornament2]
L0

[Ornament3]
L0

[Ornament4]
L0

[Ornament5]
L0

[Ornament6]
L0

[Ornament7]
L0

[Ornament8]
L0

[Ornament9]
L0

[Ornament10]
L0

[Ornament11]
L0

[Ornament12]
L0

[Ornament13]
L0

[Ornament14]
L0

[Ornament15]
L0

[Sample1]
T.E +000_ +00_ F_
T.E +000_ +00_ D_
T.E +000_ +00_ B_
T.E +000_ +00_ 9_ L

[Sample2]
T.E +000_ +00_ C_
T.E +000_ +00_ A_
T.E +000_ +00_ 8_
T.E +000_ +00_ 6_ L

[Sample3]
... +000_ +00_ 0_ L

[Sample4]
... +000_ +00_ 0_ L

[Sample5]
... +000_ +00_ 0_ L

[Sample6]
... +000_ +00_ 0_ L

[Sample7]
... +000_ +00_ 0_ L

[Sample8]
... +000_ +00_ 0_ L

[Sample9]
... +000_ +00_ 0_ L

[Sample10]
... +000_ +00_ 0_ L

[Sample11]
... +000_ +00_ 0_ L

[Sample12]
... +000_ +00_ 0_ L

[Sample13]
... +000_ +00_ 0_ L

[Sample14]
... +000_ +00_ 0_ L

[Sample15]
... +000_ +00_ 0_ L

[Sample16]
... +000_ +00_ 0_ L

[Sample17]
... +000_ +00_ 0_ L

[Sample18]
... +000_ +00_ 0_ L

[Sample19]
... +000_ +00_ 0_ L

[Sample20]
... +000_ +00_ 0_ L

[Sample21]
... +000_ +00_ 0_ L

[Sample22]
... +000_ +00_ 0_ L

[Sample23]
... +000_ +00_ 0_ L

[Sample24]
... +000_ +00_ 0_ L

[Sample25]
... +000_ +00_ 0_ L

[Sample26]
... +000_ +00_ 0_ L

[Sample27]
... +000_ +00_ 0_ L

[Sample28]
... +000_ +00_ 0_ L

[Sample29]
... +000_ +00_ 0_ L

[Sample30]
... +000_ +00_ 0_ L

[Sample31]
... +000_ +00_ 0_ L

[Pattern0]
....|..|G-2 1... ....|E-5 2... ....|C#5 1... ....
....|..|--- .... ....|--- .... ....|--- .... ....
....|..|R-- .... ....|F-5 .... ....|D-5 .... ....
....|..|--- .... ....|--- .... ....|--- .... ....
....|..|G-2 .... ....|--- .... ....|--- .... ....
....|..|--- .... ....|--- .... ....|--- .... ....
....|..|--- .... ....|--- .... ....|--- .... ....
....|..|--- .... ....|--- .... ....|--- .... ....
....|..|G-2 .... ....|R-- .... ....|R-- .... ....
....|..|--- .... ....|--- .... ....|--- .... ....
....|..|R-- .... ....|D-4 .... ....|--- .... ....
....|..|--- .... ....|--- .... ....|--- .... ....
....|..|F-2 .... ....|D-4 .... ....|F-3 .... ....
....|..|--- .... ....|--- .... ....|--- .... ....
....|..|G-2 .... ....|D-4 .... ....|G-3 .... ....
....|..|--- .... ....|--- .... ....|--- .... ....
....|..|R-- .... ....|R-- .... ....|R-- .... ....
....|..|--- .... ....|--- .... ....|--- .... ....
....|..|G-2 .... ....|D-4 .... ....|G-3 .... ....
....|..|--- .... ....|--- .... ....|--- .... ....
....|..|R-- .... ....|R-- .... ....|R-- .... ....
....|..|--- .... ....|--- .... ....|--- .... ....
....|..|G-2 .... ....|G-3 .... ....|--- .... ....
....|..|--- .... ....|--- .... ....|--- .... ....
....|..|A#2 .... ....|G-4 .... ....|A#3 .... ....
....|..|--- .... ....|--- .... ....|--- .... ....
....|..|--- .... ....|R-- .... ....|R-- .... ....
....|..|--- .... ....|--- .... ....|--- .... ....
....|..|C-3 .... ....|G-4 .... ....|C-4 .... ....
....|..|--- .... ....|--- .... ....|--- .... ....
....|..|R-- .... ....|R-- .... ....|R-- .... ....
....|..|--- .... ....|--- .... ....|--- .... ....
....|..|G-2 .... ....|E-5 .... ....|C#5 .... ....
....|..|--- .... ....|--- .... ....|--- .... ....
....|..|R-- .... ....|F-5 .... ....|D-5 .... ....
....|..|--- .... ....|--- .... ....|--- .... ....
....|..|G-2 .... ....|--- .... ....|--- .... ....
....|..|--- .... ....|--- .... ....|--- .... ....
....|..|--- .... ....|--- .... ....|--- .... ....
....|..|--- .... ....|--- .... ....|--- .... ....
....|..|G-2 .... ....|R-- .... ....|R-- .... ....
....|..|--- .... ....|--- .... ....|--- .... ....
....|..|R-- .... ....|D-4 .... ....|--- .... ....
....|..|--- .... ....|--- .... ....|--- .... ....
....|..|F-2 .... ....|D-4 .... ....|F-3 .... ....
....|..|--- .... ....|--- .... ....|--- .... ....
....|..|G-2 .... ....|D-4 .... ....|G-3 .... ....
....|..|--- .... ....|--- .... ....|--- .... ....
....|..|R-- .... ....|R-- .... ....|R-- .... ....
....|..|--- .... ....|--- .... ....|--- .... ....
....|..|G-2 .... ....|D-4 .... ....|G-3 .... ....
....|..|--- .... ....|--- .... ....|--- .... ....
....|..|R-- .... ....|R-- .... ....|R-- .... ....
....|..|--- .... ....|--- .... ....|--- .... ....
....|..|G-2 .... ....|G-3 .... ....|--- .... ....
....|..|--- .... ....|--- .... ....|--- .... ....
....|..|A#2 .... ....|G-4 .... ....|A#3 .... ....
....|..|--- .... ....|--- .... ....|--- .... ....
....|..|--- .... ....|R-- .... ....|R-- .... ....
....|..|--- .... ....|--- .... ....|--- .... ....
....|..|C-3 .... ....|G-4 .... ....|C-4 .... ....
....|..|--- .... ....|--- .... ....|--- .... ....
....|..|R-- .... ....|R-- .... ....|R-- .... ....
....|..|--- .... ....|--- .... ....|--- .... ....
....|..|G-2 .... ....|E-5 .... ....|C#5 .... ....
....|..|--- .... ....|--- .... ....|--- .... ....
....|..|R-- .... ....|F-5 .... ....|D-5 .... ....
....|..|--- .... ....|--- .... ....|--- .... ....
....|..|G-2 .... ....|--- .... ....|--- .... ....
....|..|--- .... ....|--- .... ....|--- .... ....
....|..|--- .... ....|--- .... ....|--- .... ....
....|..|--- .... ....|--- .... ....|--- .... ....
....|..|G-2 .... ....|R-- .... ....|R-- .... ....
....|..|--- .... ....|--- .... ....|--- .... ....
....|..|R-- .... ....|D-4 .... ....|--- .... ....
....|..|--- .... ....|--- .... ....|--- .... ....
....|..|F-2 .... ....|D-4 .... ....|F-3 .... ....
....|..|--- .... ....|--- .... ....|--- .... ....
....|..|G-2 .... ....|D-4 .... ....|G-3 .... ....
....|..|--- .... ....|--- .... ....|--- .... ....
....|..|R-- .... ....|R-- .... ....|R-- .... ....
....|..|--- .... ....|--- .... ....|--- .... ....
....|..|G-2 .... ....|D-4 .... ....|G-3 .... ....
....|..|--- .... ....|--- .... ....|--- .... ....
....|..|R-- .... ....|R-- .... ....|R-- .... ....
....|..|--- .... ....|--- .... ....|--- .... ....
....|..|G-2 .... ....|G-3 .... ....|--- .... ....
....|..|--- .... ....|--- .... ....|--- .... ....
....|..|A#2 .... ....|G-4 .... ....|A#3 .... ....
....|..|--- .... ....|--- .... ....|--- .... ....
....|..|--- .... ....|R-- .... ....|R-- .... ....
....|..|--- .... ....|--- .... ....|--- .... ....
....|..|C-3 .... ....|G-4 .... ....|C-4 .... ....
....|..|--- .... ....|--- .... ....|--- .... ....
....|..|R-- .... ....|R-- .... ....|R-- .... ....
....|..|--- .... ....|--- .... ....|--- .... ....
....|..|G-2 .... ....|E-5 .... ....|C#5 .... ....
....|..|--- .... ....|--- .... ....|--- .... ....
....|..|R-- .... ....|F-5 .... ....|D-5 .... ....
....|..|--- .... ....|--- .... ....|--- .... ....
....|..|G-2 .... ....|--- .... ....|--- .... ....
....|..|--- .... ....|--- .... ....|--- .... ....
....|..|--- .... ....|--- .... ....|--- .... ....
....|..|--- .... ....|--- .... ....|--- .... ....
....|..|G-2 .... ....|R-- .... ....|R-- .... ....
....|..|--- .... ....|--- .... ....|--- .... ....
....|..|R-- .... ....|D-4 .... ....|--- .... ....
....|..|--- .... ....|--- .... ....|--- .... ....
....|..|F-2 .... ....|D-4 .... ....|F-3 .... ....
....|..|--- .... ....|--- .... ....|--- .... ....
....|..|G-2 .... ....|D-4 .... ....|G-3 .... ....
....|..|--- .... ....|--- .... ....|--- .... ....
....|..|R-- .... ....|R-- .... ....|R-- .... ....
....|..|--- .... ....|--- .... ....|--- .... ....
....|..|G-2 .... ....|D-4 .... ....|G-3 .... ....
....|..|--- .... ....|--- .... ....|--- .... ....
....|..|R-- .... ....|R-- .... ....|R-- .... ....
....|..|--- .... ....|--- .... ....|--- .... ....
....|..|G-2 .... ....|G-3 .... ....|--- .... ....
....|..|--- .... ....|--- .... ....|--- .... ....
....|..|A#2 .... ....|G-4 .... ....|A#3 .... ....
....|..|--- .... ....|--- .... ....|--- .... ....
....|..|--- .... ....|R-- .... ....|R-- .... ....
....|..|--- .... ....|--- .... ....|--- .... ....
....|..|C-3 .... ....|G-4 .... ....|C-4 .... ....
....|..|--- .... ....|--- .... ....|--- .... ....
....|..|R-- .... ....|R-- .... ....|F-4 .... ....
....|..|--- .... ....|--- .... ....|--- .... ....

[Pattern1]
....|..|G-2 1... ....|E-5 2... ....|D-5 1... ....
....|..|--- .... ....|--- .... ....|--- .... ....
....|..|R-- .... ....|F-5 .... ....|--- .... ....
....|..|--- .... ....|--- .... ....|--- .... ....
....|..|G-2 .... ....|--- .... ....|D-5 .... ....
....|..|--- .... ....|--- .... ....|--- .... ....
....|..|--- .... ....|--- .... ....|--- .... ....
....|..|--- .... ....|--- .... ....|--- .... ....
....|..|G-2 .... ....|R-- .... ....|C-5 .... ....
....|..|--- .... ....|--- .... ....|--- .... ....
....|..|R-- .... ....|D-4 .... ....|--- .... ....
....|..|--- .... ....|--- .... ....|--- .... ....
....|..|F-2 .... ....|D-4 .... ....|A#4 .... ....
....|..|--- .... ....|--- .... ....|--- .... ....
....|..|G-2 .... ....|D-4 .... ....|C-5 .... ....
....|..|--- .... ....|--- .... ....|--- .... ....
....|..|R-- .... ....|R-- .... ....|--- .... ....
....|..|--- .... ....|--- .... ....|--- .... ....
....|..|G-2 .... ....|D-4 .... ....|A#4 .... ....
....|..|--- .... ....|--- .... ....|--- .... ....
....|..|R-- .... ....|R-- .... ....|--- .... ....
....|..|--- .... ....|--- .... ....|--- .... ....
....|..|G-2 .... ....|G-3 .... ....|--- .... ....
....|..|--- .... ....|--- .... ....|--- .... ....
....|..|A#2 .... ....|G-4 .... ....|G-4 .... ....
....|..|--- .... ....|--- .... ....|--- .... ....
....|..|--- .... ....|R-- .... ....|--- .... ....
....|..|--- .... ....|--- .... ....|--- .... ....
....|..|C-3 .... ....|G-4 .... ....|F-4 .... ....
....|..|--- .... ....|--- .... ....|--- .... ....
....|..|R-- .... ....|R-- .... ....|--- .... ....
....|..|--- .... ....|--- .... ....|--- .... ....
....|..|G-2 .... ....|E-5 .... ....|G-4 .... ....
....|..|--- .... ....|--- .... ....|--- .... ....
....|..|R-- .... ....|F-5 .... ....|--- .... ....
....|..|--- .... ....|--- .... ....|--- .... ....
....|..|G-2 .... ....|--- .... ....|G-4 .... ....
....|..|--- .... ....|--- .... ....|--- .... ....
....|..|--- .... ....|--- .... ....|--- .... ....
....|..|--- .... ....|--- .... ....|--- .... ....
....|..|G-2 .... ....|R-- .... ....|G-4 .... ....
....|..|--- .... ....|--- .... ....|--- .... ....
....|..|R-- .... ....|D-4 .... ....|--- .... ....
....|..|--- .... ....|--- .... ....|--- .... ....
....|..|F-2 .... ....|D-4 .... ....|F-4 .... ....
....|..|--- .... ....|--- .... ....|--- .... ....
....|..|G-2 .... ....|D-4 .... ....|G-4 .... ....
....|..|--- .... ....|--- .... ....|--- .... ....
....|..|R-- .... ....|R-- .... ....|R-- .... ....
....|..|--- .... ....|--- .... ....|--- .... ....
....|..|G-2 .... ....|D-4 .... ....|--- .... ....
....|..|--- .... ....|--- .... ....|--- .... ....
....|..|R-- .... ....|R-- .... ....|--- .... ....
....|..|--- .... ....|--- .... ....|--- .... ....
....|..|G-2 .... ....|G-3 .... ....|--- .... ....
....|..|--- .... ....|--- .... ....|--- .... ....
....|..|A#2 .... ....|G-4 .... ....|--- .... ....
....|..|--- .... ....|--- .... ....|--- .... ....
....|..|--- .... ....|R-- .... ....|--- .... ....
....|..|--- .... ....|--- .... ....|--- .... ....
....|..|C-3 .... ....|G-4 .... ....|G-4 .... ....
....|..|--- .... ....|--- .... ....|--- .... ....
....|..|R-- .... ....|R-- .... ....|--- .... ....
....|..|--- .... ....|--- .... ....|--- .... ....
....|..|G-2 .... ....|E-5 .... ....|D-5 .... ....
....|..|--- .... ....|--- .... ....|--- .... ....
....|..|R-- .... ....|F-5 .... ....|--- .... ....
....|..|--- .... ....|--- .... ....|--- .... ....
....|..|G-2 .... ....|--- .... ....|--- .... ....
....|..|--- .... ....|--- .... ....|--- .... ....
....|..|--- .... ....|--- .... ....|--- .... ....
....|..|--- .... ....|--- .... ....|--- .... ....
....|..|G-2 .... ....|R-- .... ....|C-5 .... ....
....|..|--- .... ....|--- .... ....|--- .... ....
....|..|R-- .... ....|D-4 .... ....|--- .... ....
....|..|--- .... ....|--- .... ....|--- .... ....
....|..|F-2 .... ....|D-4 .... ....|A#4 .... ....
....|..|--- .... ....|--- .... ....|--- .... ....
....|..|G-2 .... ....|D-4 .... ....|C-5 .... ....
....|..|--- .... ....|--- .... ....|--- .... ....
....|..|R-- .... ....|R-- .... ....|--- .... ....
....|..|--- .... ....|--- .... ....|--- .... ....
....|..|G-2 .... ....|D-4 .... ....|A#4 .... ....
....|..|--- .... ....|--- .... ....|--- .... ....
....|..|R-- .... ....|R-- .... ....|--- .... ....
....|..|--- .... ....|--- .... ....|--- .... ....
....|..|G-2 .... ....|G-3 .... ....|--- .... ....
....|..|--- .... ....|--- .... ....|--- .... ....
....|..|A#2 .... ....|G-4 .... ....|G-4 .... ....
....|..|--- .... ....|--- .... ....|--- .... ....
....|..|--- .... ....|R-- .... ....|--- .... ....
....|..|--- .... ....|--- .... ....|--- .... ....
....|..|C-3 .... ....|G-4 .... ....|F-4 .... ....
....|..|--- .... ....|--- .... ....|--- .... ....
....|..|R-- .... ....|--- .... ....|--- .... ....
....|..|--- .... ....|--- .... ....|--- .... ....
....|..|G-2 .... ....|E-5 .... ....|G-4 .... ....
....|..|--- .... ....|--- .... ....|--- .... ....
....|..|R-- .... ....|F-5 .... ....|G-4 .... ....
....|..|--- .... ....|--- .... ....|--- .... ....
....|..|G-2 .... ....|--- .... ....|--- .... ....
....|..|--- .... ....|--- .... ....|--- .... ....
....|..|--- .... ....|--- .... ....|--- .... ....
....|..|--- .... ....|--- .... ....|--- .... ....
....|..|G-2 .... ....|R-- .... ....|G-4 .... ....
....|..|--- .... ....|--- .... ....|--- .... ....
....|..|R-- .... ....|D-4 .... ....|--- .... ....
....|..|--- .... ....|--- .... ....|--- .... ....
....|..|F-2 .... ....|D-4 .... ....|F-4 .... ....
....|..|--- .... ....|--- .... ....|--- .... ....
....|..|G-2 .... ....|D-4 .... ....|G-4 .... ....
....|..|--- .... ....|--- .... ....|--- .... ....
....|..|R-- .... ....|R-- .... ....|R-- .... ....
....|..|--- .... ....|--- .... ....|--- .... ....
....|..|G-2 .... ....|D-4 .... ....|--- .... ....
....|..|--- .... ....|--- .... ....|--- .... ....
....|..|R-- .... ....|R-- .... ....|--- .... ....
....|..|--- .... ....|--- .... ....|--- .... ....
....|..|G-2 .... ....|G-3 .... ....|--- .... ....
....|..|--- .... ....|--- .... ....|--- .... ....
....|..|A#2 .... ....|G-4 .... ....|--- .... ....
....|..|--- .... ....|--- .... ....|--- .... ....
....|..|--- .... ....|R-- .... ....|--- .... ....
....|..|--- .... ....|--- .... ....|--- .... ....
....|..|C-3 .... ....|G-4 .... ....|G-4 .... ....
....|..|--- .... ....|--- .... ....|--- .... ....
....|..|R-- .... ....|R-- .... ....|--- .... ....
....|..|--- .... ....|--- .... ....|--- .... ....

[Pattern2]
....|..|G-2 1... ....|E-5 2... ....|D-5 1... ....
....|..|--- .... ....|--- .... ....|--- .... ....
....|..|R-- .... ....|F-5 .... ....|--- .... ....
....|..|--- .... ....|--- .... ....|--- .... ....
....|..|G-2 .... ....|--- .... ....|D-5 .... ....
....|..|--- .... ....|--- .... ....|--- .... ....
....|..|--- .... ....|--- .... ....|--- .... ....
....|..|--- .... ....|--- .... ....|--- .... ....
....|..|G-2 .... ....|R-- .... ....|C-5 .... ....
....|..|--- .... ....|--- .... ....|--- .... ....
....|..|R-- .... ....|D-4 .... ....|--- .... ....
....|..|--- .... ....|--- .... ....|--- .... ....
....|..|F-2 .... ....|D-4 .... ....|A#4 .... ....
....|..|--- .... ....|--- .... ....|--- .... ....
....|..|G-2 .... ....|D-4 .... ....|C-5 .... ....
....|..|--- .... ....|--- .... ....|--- .... ....
....|..|R-- .... ....|R-- .... ....|--- .... ....
....|..|--- .... ....|--- .... ....|--- .... ....
....|..|G-2 .... ....|D-4 .... ....|A#4 .... ....
....|..|--- .... ....|--- .... ....|--- .... ....
....|..|R-- .... ....|R-- .... ....|--- .... ....
....|..|--- .... ....|--- .... ....|--- .... ....
....|..|G-2 .... ....|G-3 .... ....|--- .... ....
....|..|--- .... ....|--- .... ....|--- .... ....
....|..|A#2 .... ....|G-4 .... ....|--- .... ....
....|..|--- .... ....|--- .... ....|--- .... ....
....|..|--- .... ....|R-- .... ....|--- .... ....
....|..|--- .... ....|--- .... ....|--- .... ....
....|..|C-3 .... ....|G-4 .... ....|F-4 .... ....
....|..|--- .... ....|--- .... ....|--- .... ....
....|..|R-- .... ....|R-- .... ....|--- .... ....
....|..|--- .... ....|--- .... ....|--- .... ....
....|..|G-2 .... ....|E-5 .... ....|G-4 .... ....
....|..|--- .... ....|--- .... ....|--- .... ....
....|..|R-- .... ....|F-5 .... ....|--- .... ....
....|..|--- .... ....|--- .... ....|--- .... ....
....|..|G-2 .... ....|--- .... ....|G-4 .... ....
....|..|--- .... ....|--- .... ....|--- .... ....
....|..|--- .... ....|--- .... ....|--- .... ....
....|..|--- .... ....|--- .... ....|--- .... ....
....|..|G-2 .... ....|R-- .... ....|G-4 .... ....
....|..|--- .... ....|--- .... ....|--- .... ....
....|..|R-- .... ....|D-4 .... ....|--- .... ....
....|..|--- .... ....|--- .... ....|--- .... ....
....|..|F-2 .... ....|D-4 .... ....|F-4 .... ....
....|..|--- .... ....|--- .... ....|--- .... ....
....|..|G-2 .... ....|D-4 .... ....|G-4 .... ....
....|..|--- .... ....|--- .... ....|--- .... ....
....|..|R-- .... ....|R-- .... ....|--- .... ....
....|..|--- .... ....|--- .... ....|--- .... ....
....|..|G-2 .... ....|D-4 .... ....|G-4 .... ....
....|..|--- .... ....|--- .... ....|--- .... ....
....|..|R-- .... ....|R-- .... ....|--- .... ....
....|..|--- .... ....|--- .... ....|--- .... ....
....|..|G-2 .... ....|G-3 .... ....|--- .... ....
....|..|--- .... ....|--- .... ....|--- .... ....
....|..|A#2 .... ....|G-4 .... ....|R-- .... ....
....|..|--- .... ....|--- .... ....|--- .... ....
....|..|--- .... ....|R-- .... ....|--- .... ....
....|..|--- .... ....|--- .... ....|--- .... ....
....|..|C-3 .... ....|G-4 .... ....|--- .... ....
....|..|--- .... ....|--- .... ....|--- .... ....
....|..|R-- .... ....|R-- .... ....|--- .... ....
....|..|--- .... ....|--- .... ....|--- .... ....
....|..|G-2 .... ....|E-5 .... ....|D-5 .... ....
....|..|--- .... ....|--- .... ....|--- .... ....
....|..|--- .... ....|F-5 .... ....|--- .... ....
....|..|--- .... ....|--- .... ....|--- .... ....
....|..|R-- .... ....|--- .... ....|C-5 .... ....
....|..|--- .... ....|--- .... ....|--- .... ....
....|..|--- .... ....|--- .... ....|A#4 .... ....
....|..|--- .... ....|--- .... ....|--- .... ....
....|..|--- .... ....|R-- .... ....|C-5 .... ....
....|..|--- .... ....|--- .... ....|--- .... ....
....|..|--- .... ....|--- .... ....|--- .... ....
....|..|--- .... ....|--- .... ....|--- .... ....
....|..|--- .... ....|--- .... ....|A#4 .... ....
....|..|--- .... ....|--- .... ....|--- .... ....
....|..|--- .... ....|--- .... ....|D-5 .... ....
....|..|--- .... ....|--- .... ....|--- .... ....
....|..|--- .... ....|--- .... ....|--- .... ....
....|..|--- .... ....|--- .... ....|--- .... ....
....|..|--- .... ....|--- .... ....|--- .... ....
....|..|--- .... ....|--- .... ....|--- .... ....
....|..|--- .... ....|--- .... ....|C-5 .... ....
....|..|--- .... ....|--- .... ....|--- .... ....
....|..|--- .... ....|--- .... ....|--- .... ....
....|..|--- .... ....|--- .... ....|--- .... ....
....|..|--- .... ....|--- .... ....|A#4 .... ....
....|..|--- .... ....|--- .... ....|--- .... ....
....|..|--- .... ....|--- .... ....|--- .... ....
....|..|--- .... ....|--- .... ....|--- .... ....
....|..|--- .... ....|--- .... ....|G-4 .... ....
....|..|--- .... ....|--- .... ....|--- .... ....
....|..|--- .... ....|--- .... ....|--- .... ....
....|..|--- .... ....|--- .... ....|R-- .... ....
....|..|G-2 .... ....|D-4 .... ....|G-1 .... ....
....|..|--- .... ....|--- .... ....|--- .... ....
....|..|G-2 .... ....|D-4 .... ....|G-1 .... ....
....|..|--- .... ....|--- .... ....|--- .... ....
....|..|R-- .... ....|R-- .... ....|R-- .... ....
....|..|--- .... ....|--- .... ....|--- .... ....
....|..|F-2 .... ....|D-4 .... ....|F-1 .... ....
....|..|--- .... ....|--- .... ....|--- .... ....
....|..|R-- .... ....|R-- .... ....|R-- .... ....
....|..|--- .... ....|--- .... ....|--- .... ....
....|..|G-2 .... ....|D-4 .... ....|G-1 .... ....
....|..|--- .... ....|--- .... ....|--- .... ....
....|..|R-- .... ....|R-- .... ....|R-- .... ....
....|..|--- .... ....|--- .... ....|--- .... ....
....|..|G-2 .... ....|G-3 .... ....|G-1 .... ....
....|..|--- .... ....|--- .... ....|--- .... ....
....|..|A#2 .... ....|G-4 .... ....|A#1 .... ....
....|..|--- .... ....|--- .... ....|--- .... ....
....|..|--- .... ....|R-- .... ....|--- .... ....
....|..|--- .... ....|--- .... ....|R-- .... ....
....|..|C-3 .... ....|G-4 .... ....|--- .... ....
....|..|--- .... ....|--- .... ....|--- .... ....
....|..|--- .... ....|R-- .... ....|--- .... ....
....|..|--- .... ....|--- .... ....|--- .... ....
....|..|A#2 .... ....|G-4 .... ....|--- .... ....
....|..|--- .... ....|--- .... ....|--- .... ....
....|..|--- .... ....|--- .... ....|--- .... ....
....|..|--- .... ....|--- .... ....|--- .... ....
....|..|--- .... ....|--- .... ....|G-5 .... ....
....|..|--- .... ....|--- .... ....|--- .... ....
....|..|F-2 .... ....|D-4 .... ....|--- .... ....
....|..|--- .... ....|--- .... ....|--- .... ....

[Pattern3]
....|..|G-2 1... ....|D-4 2... ....|G-1 1... ....
....|..|--- .... ....|--- .... ....|--- .... ....
....|..|G-2 .... ....|D-4 .... ....|G-1 .... ....
....|..|--- .... ....|--- .... ....|--- .... ....
....|..|R-- .... ....|R-- .... ....|R-- .... ....
....|..|--- .... ....|--- .... ....|--- .... ....
....|..|F-2 .... ....|D-4 .... ....|F-1 .... ....
....|..|--- .... ....|--- .... ....|--- .... ....
....|..|R-- .... ....|R-- .... ....|R-- .... ....
....|..|--- .... ....|--- .... ....|--- .... ....
....|..|G-2 .... ....|D-4 .... ....|G-1 .... ....
....|..|--- .... ....|--- .... ....|--- .... ....
....|..|R-- .... ....|--- .... ....|R-- .... ....
....|..|--- .... ....|--- .... ....|--- .... ....
....|..|G-2 .... ....|G-3 .... ....|G-1 .... ....
....|..|--- .... ....|--- .... ....|--- .... ....
....|..|A#2 .... ....|G-4 .... ....|A#1 .... ....
....|..|--- .... ....|--- .... ....|--- .... ....
....|..|--- .... ....|R-- .... ....|--- .... ....
....|..|--- .... ....|--- .... ....|R-- .... ....
....|..|C-3 .... ....|G-4 .... ....|--- .... ....
....|..|--- .... ....|--- .... ....|--- .... ....
....|..|--- .... ....|R-- .... ....|--- .... ....
....|..|--- .... ....|--- .... ....|--- .... ....
....|..|A#2 .... ....|G-4 .... ....|--- .... ....
....|..|--- .... ....|--- .... ....|--- .... ....
....|..|--- .... ....|--- .... ....|--- .... ....
....|..|--- .... ....|--- .... ....|--- .... ....
....|..|--- .... ....|--- .... ....|G-5 .... ....
....|..|--- .... ....|--- .... ....|--- .... ....
....|..|F-2 .... ....|D-4 .... ....|--- .... ....
....|..|--- .... ....|--- .... ....|--- .... ....
....|..|G-2 .... ....|D-4 .... ....|G-1 .... ....
....|..|--- .... ....|--- .... ....|--- .... ....
....|..|G-2 .... ....|D-4 .... ....|G-1 .... ....
....|..|--- .... ....|--- .... ....|--- .... ....
....|..|R-- .... ....|R-- .... ....|R-- .... ....
....|..|--- .... ....|--- .... ....|--- .... ....
....|..|F-2 .... ....|D-4 .... ....|F-1 .... ....
....|..|--- .... ....|--- .... ....|--- .... ....
....|..|R-- .... ....|R-- .... ....|R-- .... ....
....|..|--- .... ....|--- .... ....|--- .... ....
....|..|G-2 .... ....|D-4 .... ....|G-1 .... ....
....|..|--- .... ....|--- .... ....|--- .... ....
....|..|R-- .... ....|R-- .... ....|R-- .... ....
....|..|--- .... ....|--- .... ....|--- .... ....
....|..|G-2 .... ....|G-3 .... ....|G-1 .... ....
....|..|--- .... ....|--- .... ....|--- .... ....
....|..|A#2 .... ....|G-4 .... ....|A#1 .... ....
....|..|--- .... ....|--- .... ....|--- .... ....
....|..|--- .... ....|R-- .... ....|--- .... ....
....|..|--- .... ....|--- .... ....|--- .... ....
....|..|C-3 .... ....|G-4 .... ....|C-2 .... ....
....|..|--- .... ....|--- .... ....|--- .... ....
....|..|--- .... ....|--- .... ....|--- .... ....
....|..|--- .... ....|--- .... ....|--- .... ....
....|..|A#2 .... ....|G-4 .... ....|A#1 .... ....
....|..|--- .... ....|--- .... ....|--- .... ....
....|..|--- .... ....|--- .... ....|--- .... ....
....|..|--- .... ....|--- .... ....|--- .... ....
....|..|--- .... ....|--- .... ....|G-5 .... ....
....|..|--- .... ....|--- .... ....|--- .... ....
....|..|F-2 .... ....|D-4 .... ....|--- .... ....
....|..|--- .... ....|--- .... ....|--- .... ....
....|..|G-2 .... ....|D-4 .... ....|G-1 .... ....
....|..|--- .... ....|--- .... ....|--- .... ....
....|..|G-2 .... ....|D-4 .... ....|G-1 .... ....
....|..|--- .... ....|--- .... ....|--- .... ....
....|..|R-- .... ....|R-- .... ....|R-- .... ....
....|..|--- .... ....|--- .... ....|--- .... ....
....|..|F-2 .... ....|D-4 .... ....|F-1 .... ....
....|..|--- .... ....|--- .... ....|--- .... ....
....|..|R-- .... ....|R-- .... ....|R-- .... ....
....|..|--- .... ....|--- .... ....|--- .... ....
....|..|G-2 .... ....|D-4 .... ....|G-1 .... ....
....|..|--- .... ....|--- .... ....|--- .... ....
....|..|--- .... ....|--- .... ....|--- .... ....
....|..|--- .... ....|--- .... ....|--- .... ....
....|..|--- .... ....|--- .... ....|--- .... ....
....|..|--- .... ....|--- .... ....|--- .... ....
....|..|R-- .... ....|C-5 .... ....|R-- .... ....
....|..|--- .... ....|--- .... ....|--- .... ....
....|..|--- .... ....|C-5 .... ....|--- .... ....
....|..|--- .... ....|--- .... ....|--- .... ....
....|..|--- .... ....|C-4 .... ....|--- .... ....
....|..|--- .... ....|--- .... ....|--- .... ....
....|..|--- .... ....|C-4 .... ....|--- .... ....
....|..|--- .... ....|--- .... ....|--- .... ....
....|..|--- .... ....|C-5 .... ....|--- .... ....
....|..|--- .... ....|--- .... ....|--- .... ....
....|..|--- .... ....|E-5 .... ....|--- .... ....
....|..|--- .... ....|--- .... ....|--- .... ....
....|..|--- .... ....|--- .... ....|--- .... ....
....|..|--- .... ....|--- .... ....|--- .... ....
....|..|--- .... ....|--- .... ....|--- .... ....
....|..|--- .... ....|--- .... ....|--- .... ....
....|..|G-2 .... ....|E-5 .... ....|D-5 .... ....
....|..|--- .... ....|--- .... ....|--- .... ....
....|..|R-- .... ....|F-5 .... ....|--- .... ....
....|..|--- .... ....|--- .... ....|--- .... ....
....|..|G-2 .... ....|--- .... ....|D-5 .... ....
....|..|--- .... ....|--- .... ....|--- .... ....
....|..|--- .... ....|--- .... ....|--- .... ....
....|..|--- .... ....|--- .... ....|--- .... ....
....|..|G-2 .... ....|R-- .... ....|C-5 .... ....
....|..|--- .... ....|--- .... ....|--- .... ....
....|..|R-- .... ....|D-4 .... ....|--- .... ....
....|..|--- .... ....|--- .... ....|--- .... ....
....|..|F-2 .... ....|D-4 .... ....|A#4 .... ....
....|..|--- .... ....|--- .... ....|--- .... ....
....|..|G-2 .... ....|D-4 .... ....|C-5 .... ....
....|..|--- .... ....|--- .... ....|--- .... ....
....|..|R-- .... ....|R-- .... ....|--- .... ....
....|..|--- .... ....|--- .... ....|--- .... ....
....|..|G-2 .... ....|D-4 .... ....|A#4 .... ....
....|..|--- .... ....|--- .... ....|--- .... ....
....|..|R-- .... ....|R-- .... ....|--- .... ....
....|..|--- .... ....|--- .... ....|--- .... ....
....|..|G-2 .... ....|G-3 .... ....|--- .... ....
....|..|--- .... ....|--- .... ....|--- .... ....
....|..|A#2 .... ....|G-4 .... ....|G-4 .... ....
....|..|--- .... ....|--- .... ....|--- .... ....
....|..|--- .... ....|R-- .... ....|--- .... ....
....|..|--- .... ....|--- .... ....|--- .... ....
....|..|C-3 .... ....|G-4 .... ....|F-4 .... ....
....|..|--- .... ....|--- .... ....|--- .... ....
....|..|R-- .... ....|R-- .... ....|--- .... ....
....|..|--- .... ....|--- .... ....|--- .... ....

[Pattern4]
....|..|G-2 1... ....|E-5 2... ....|G-4 1... ....
....|..|--- .... ....|--- .... ....|--- .... ....
....|..|R-- .... ....|F-5 .... ....|--- .... ....
....|..|--- .... ....|--- .... ....|--- .... ....
....|..|G-2 .... ....|--- .... ....|G-4 .... ....
....|..|--- .... ....|--- .... ....|--- .... ....
....|..|--- .... ....|--- .... ....|--- .... ....
....|..|--- .... ....|--- .... ....|--- .... ....
....|..|G-2 .... ....|R-- .... ....|G-4 .... ....
....|..|--- .... ....|--- .... ....|--- .... ....
....|..|--- .... ....|D-4 .... ....|--- .... ....
....|..|--- .... ....|--- .... ....|--- .... ....
....|..|F-2 .... ....|D-4 .... ....|F-4 .... ....
....|..|--- .... ....|--- .... ....|--- .... ....
....|..|G-2 .... ....|D-4 .... ....|G-4 .... ....
....|..|--- .... ....|--- .... ....|--- .... ....
....|..|R-- .... ....|R-- .... ....|R-- .... ....
....|..|--- .... ....|--- .... ....|--- .... ....
....|..|G-2 .... ....|D-4 .... ....|--- .... ....
....|..|--- .... ....|--- .... ....|--- .... ....
....|..|R-- .... ....|R-- .... ....|--- .... ....
....|..|--- .... ....|--- .... ....|--- .... ....
....|..|G-2 .... ....|G-3 .... ....|--- .... ....
....|..|--- .... ....|--- .... ....|--- .... ....
....|..|A#2 .... ....|G-4 .... ....|--- .... ....
....|..|--- .... ....|--- .... ....|--- .... ....
....|..|--- .... ....|R-- .... ....|--- .... ....
....|..|--- .... ....|--- .... ....|--- .... ....
....|..|C-3 .... ....|G-4 .... ....|G-4 .... ....
....|..|--- .... ....|--- .... ....|--- .... ....
....|..|R-- .... ....|R-- .... ....|G-4 .... ....
....|..|--- .... ....|--- .... ....|--- .... ....
....|..|G-2 .... ....|E-5 .... ....|D-5 .... ....
....|..|--- .... ....|--- .... ....|--- .... ....
....|..|R-- .... ....|F-5 .... ....|--- .... ....
....|..|--- .... ....|--- .... ....|--- .... ....
....|..|G-2 .... ....|--- .... ....|--- .... ....
....|..|--- .... ....|--- .... ....|--- .... ....
....|..|--- .... ....|--- .... ....|--- .... ....
....|..|--- .... ....|--- .... ....|--- .... ....
....|..|G-2 .... ....|R-- .... ....|C-5 .... ....
....|..|--- .... ....|--- .... ....|--- .... ....
....|..|R-- .... ....|D-4 .... ....|--- .... ....
....|..|--- .... ....|--- .... ....|--- .... ....
....|..|F-2 .... ....|D-4 .... ....|A#4 .... ....
....|..|--- .... ....|--- .... ....|--- .... ....
....|..|G-2 .... ....|D-4 .... ....|C-5 .... ....
....|..|--- .... ....|--- .... ....|--- .... ....
....|..|R-- .... ....|R-- .... ....|--- .... ....
....|..|--- .... ....|--- .... ....|--- .... ....
....|..|G-2 .... ....|D-4 .... ....|A#4 .... ....
....|..|--- .... ....|--- .... ....|--- .... ....
....|..|R-- .... ....|R-- .... ....|--- .... ....
....|..|--- .... ....|--- .... ....|--- .... ....
....|..|G-2 .... ....|G-3 .... ....|--- .... ....
....|..|--- .... ....|--- .... ....|--- .... ....
....|..|A#2 .... ....|G-4 .... ....|G-4 .... ....
....|..|--- .... ....|--- .... ....|--- .... ....
....|..|--- .... ....|R-- .... ....|--- .... ....
....|..|--- .... ....|--- .... ....|--- .... ....
....|..|C-3 .... ....|G-4 .... ....|F-4 .... ....
....|..|--- .... ....|--- .... ....|--- .... ....
....|..|R-- .... ....|R-- .... ....|--- .... ....
....|..|--- .... ....|--- .... ....|--- .... ....
....|..|G-2 .... ....|E-5 .... ....|G-4 .... ....
....|..|--- .... ....|--- .... ....|--- .... ....
....|..|R-- .... ....|F-5 .... ....|G-4 .... ....
....|..|--- .... ....|--- .... ....|--- .... ....
....|..|G-2 .... ....|--- .... ....|--- .... ....
....|..|--- .... ....|--- .... ....|--- .... ....
....|..|--- .... ....|--- .... ....|--- .... ....
....|..|--- .... ....|--- .... ....|--- .... ....
....|..|G-2 .... ....|R-- .... ....|G-4 .... ....
....|..|--- .... ....|--- .... ....|--- .... ....
....|..|R-- .... ....|D-4 .... ....|--- .... ....
....|..|--- .... ....|--- .... ....|--- .... ....
....|..|F-2 .... ....|D-4 .... ....|F-4 .... ....
....|..|--- .... ....|--- .... ....|--- .... ....
....|..|G-2 .... ....|D-4 .... ....|G-4 .... ....
....|..|--- .... ....|--- .... ....|--- .... ....
....|..|R-- .... ....|R-- .... ....|R-- .... ....
....|..|--- .... ....|--- .... ....|--- .... ....
....|..|G-2 .... ....|D-4 .... ....|--- .... ....
....|..|--- .... ....|--- .... ....|--- .... ....
....|..|R-- .... ....|R-- .... ....|--- .... ....
....|..|--- .... ....|--- .... ....|--- .... ....
....|..|G-2 .... ....|G-3 .... ....|--- .... ....
....|..|--- .... ....|--- .... ....|--- .... ....
....|..|A#2 .... ....|G-4 .... ....|--- .... ....
....|..|--- .... ....|--- .... ....|--- .... ....
....|..|--- .... ....|R-- .... ....|G-4 .... ....
....|..|--- .... ....|--- .... ....|--- .... ....
....|..|C-3 .... ....|G-4 .... ....|G-4 .... ....
....|..|--- .... ....|--- .... ....|--- .... ....
....|..|R-- .... ....|R-- .... ....|G-4 .... ....
....|..|--- .... ....|--- .... ....|--- .... ....
....|..|G-2 .... ....|E-5 .... ....|D-5 .... ....
....|..|--- .... ....|--- .... ....|--- .... ....
....|..|R-- .... ....|F-5 .... ....|--- .... ....
....|..|--- .... ....|--- .... ....|--- .... ....
....|..|G-2 .... ....|--- .... ....|R-- .... ....
....|..|--- .... ....|--- .... ....|--- .... ....
....|..|--- .... ....|--- .... ....|--- .... ....
....|..|--- .... ....|--- .... ....|--- .... ....
....|..|G-2 .... ....|R-- .... ....|C-5 .... ....
....|..|--- .... ....|--- .... ....|--- .... ....
....|..|R-- .... ....|D-4 .... ....|--- .... ....
....|..|--- .... ....|--- .... ....|--- .... ....
....|..|F-2 .... ....|D-4 .... ....|A#4 .... ....
....|..|--- .... ....|--- .... ....|--- .... ....
....|..|G-2 .... ....|D-4 .... ....|C-5 .... ....
....|..|--- .... ....|--- .... ....|--- .... ....
....|..|R-- .... ....|R-- .... ....|--- .... ....
....|..|--- .... ....|--- .... ....|--- .... ....
....|..|G-2 .... ....|D-4 .... ....|A#4 .... ....
....|..|--- .... ....|--- .... ....|--- .... ....
....|..|R-- .... ....|R-- .... ....|--- .... ....
....|..|--- .... ....|--- .... ....|--- .... ....
....|..|G-2 .... ....|G-3 .... ....|--- .... ....
....|..|--- .... ....|--- .... ....|--- .... ....
....|..|A#2 .... ....|G-4 .... ....|--- .... ....
....|..|--- .... ....|--- .... ....|--- .... ....
....|..|--- .... ....|R-- .... ....|F-4 .... ....
....|..|--- .... ....|--- .... ....|--- .... ....
....|..|C-3 .... ....|G-4 .... ....|F-4 .... ....
....|..|--- .... ....|--- .... ....|--- .... ....
....|..|R-- .... ....|R-- .... ....|--- .... ....
....|..|--- .... ....|--- .... ....|--- .... ....

[Pattern5]
....|..|G-2 1... ....|E-5 2... ....|G-4 1... ....
....|..|--- .... ....|--- .... ....|--- .... ....
....|..|R-- .... ....|F-5 .... ....|--- .... ....
....|..|--- .... ....|--- .... ....|--- .... ....
....|..|G-2 .... ....|--- .... ....|G-4 .... ....
....|..|--- .... ....|--- .... ....|--- .... ....
....|..|--- .... ....|--- .... ....|--- .... ....
....|..|--- .... ....|--- .... ....|--- .... ....
....|..|G-2 .... ....|R-- .... ....|G-4 .... ....
....|..|--- .... ....|--- .... ....|--- .... ....
....|..|R-- .... ....|D-4 .... ....|--- .... ....
....|..|--- .... ....|--- .... ....|--- .... ....
....|..|F-2 .... ....|D-4 .... ....|F-4 .... ....
....|..|--- .... ....|--- .... ....|--- .... ....
....|..|G-2 .... ....|D-4 .... ....|G-4 .... ....
....|..|--- .... ....|--- .... ....|--- .... ....
....|..|R-- .... ....|R-- .... ....|--- .... ....
....|..|--- .... ....|--- .... ....|--- .... ....
....|..|G-2 .... ....|D-4 .... ....|G-4 .... ....
....|..|--- .... ....|--- .... ....|--- .... ....
....|..|R-- .... ....|R-- .... ....|--- .... ....
....|..|--- .... ....|--- .... ....|--- .... ....
....|..|G-2 .... ....|G-3 .... ....|--- .... ....
....|..|--- .... ....|--- .... ....|--- .... ....
....|..|A#2 .... ....|G-4 .... ....|R-- .... ....
....|..|--- .... ....|--- .... ....|--- .... ....
....|..|--- .... ....|R-- .... ....|--- .... ....
....|..|--- .... ....|--- .... ....|--- .... ....
....|..|C-3 .... ....|G-4 .... ....|G-4 .... ....
....|..|--- .... ....|--- .... ....|--- .... ....
....|..|R-- .... ....|R-- .... ....|G-4 .... ....
....|..|--- .... ....|--- .... ....|--- .... ....
....|..|G-2 .... ....|E-5 .... ....|D-5 .... ....
....|..|--- .... ....|--- .... ....|--- .... ....
....|..|--- .... ....|F-5 .... ....|D-5 .... ....
....|..|--- .... ....|--- .... ....|--- .... ....
....|..|R-- .... ....|--- .... ....|C-5 .... ....
....|..|--- .... ....|--- .... ....|--- .... ....
....|..|--- .... ....|--- .... ....|A#4 .... ....
....|..|--- .... ....|--- .... ....|--- .... ....
....|..|--- .... ....|R-- .... ....|C-5 .... ....
....|..|--- .... ....|--- .... ....|--- .... ....
....|..|--- .... ....|--- .... ....|A#4 .... ....
....|..|--- .... ....|--- .... ....|--- .... ....
....|..|--- .... ....|--- .... ....|A#4 .... ....
....|..|--- .... ....|--- .... ....|--- .... ....
....|..|--- .... ....|--- .... ....|D-5 .... ....
....|..|--- .... ....|--- .... ....|--- .... ....
....|..|--- .... ....|--- .... ....|--- .... ....
....|..|--- .... ....|--- .... ....|--- .... ....
....|..|--- .... ....|--- .... ....|--- .... ....
....|..|--- .... ....|--- .... ....|--- .... ....
....|..|--- .... ....|--- .... ....|C-5 .... ....
....|..|--- .... ....|--- .... ....|--- .... ....
....|..|--- .... ....|--- .... ....|--- .... ....
....|..|--- .... ....|--- .... ....|--- .... ....
....|..|--- .... ....|--- .... ....|A#4 .... ....
....|..|--- .... ....|--- .... ....|--- .... ....
....|..|--- .... ....|--- .... ....|--- .... ....
....|..|--- .... ....|--- .... ....|--- .... ....
....|..|--- .... ....|--- .... ....|G-4 .... ....
....|..|--- .... ....|--- .... ....|--- .... ....
....|..|--- .... ....|--- .... ....|--- .... ....
....|..|--- .... ....|--- .... ....|--- .... ....
....|..|G-2 .... ....|D-4 .... ....|G-1 .... ....
....|..|--- .... ....|--- .... ....|--- .... ....
....|..|G-2 .... ....|D-4 .... ....|G-1 .... ....
....|..|--- .... ....|--- .... ....|--- .... ....
....|..|R-- .... ....|R-- .... ....|R-- .... ....
....|..|--- .... ....|--- .... ....|--- .... ....
....|..|F-2 .... ....|D-4 .... ....|F-1 .... ....
....|..|--- .... ....|--- .... ....|--- .... ....
....|..|R-- .... ....|R-- .... ....|R-- .... ....
....|..|--- .... ....|--- .... ....|--- .... ....
....|..|G-2 .... ....|D-4 .... ....|G-2 .... ....
....|..|--- .... ....|--- .... ....|--- .... ....
....|..|R-- .... ....|R-- .... ....|R-- .... ....
....|..|--- .... ....|--- .... ....|--- .... ....
....|..|G-2 .... ....|G-3 .... ....|G-1 .... ....
....|..|--- .... ....|--- .... ....|--- .... ....
....|..|A#2 .... ....|G-4 .... ....|A#1 .... ....
....|..|--- .... ....|--- .... ....|--- .... ....
....|..|--- .... ....|R-- .... ....|--- .... ....
....|..|--- .... ....|--- .... ....|--- .... ....
....|..|C-3 .... ....|G-4 .... ....|C-2 .... ....
....|..|--- .... ....|--- .... ....|--- .... ....
....|..|--- .... ....|R-- .... ....|--- .... ....
....|..|--- .... ....|--- .... ....|--- .... ....
....|..|A#2 .... ....|G-4 .... ....|A#1 .... ....
....|..|--- .... ....|--- .... ....|--- .... ....
....|..|--- .... ....|--- .... ....|--- .... ....
....|..|--- .... ....|--- .... ....|--- .... ....
....|..|--- .... ....|--- .... ....|G-5 .... ....
....|..|--- .... ....|--- .... ....|--- .... ....
....|..|F-2 .... ....|D-4 .... ....|--- .... ....
....|..|--- .... ....|--- .... ....|--- .... ....
....|..|G-2 .... ....|D-4 .... ....|G-1 .... ....
....|..|--- .... ....|--- .... ....|--- .... ....
....|..|G-2 .... ....|D-4 .... ....|G-1 .... ....
....|..|--- .... ....|--- .... ....|--- .... ....
....|..|R-- .... ....|R-- .... ....|R-- .... ....
....|..|--- .... ....|--- .... ....|--- .... ....
....|..|F-2 .... ....|D-4 .... ....|F-1 .... ....
....|..|--- .... ....|--- .... ....|--- .... ....
....|..|R-- .... ....|R-- .... ....|R-- .... ....
....|..|--- .... ....|--- .... ....|--- .... ....
....|..|G-2 .... ....|D-4 .... ....|G-1 .... ....
....|..|--- .... ....|--- .... ....|--- .... ....
....|..|R-- .... ....|R-- .... ....|R-- .... ....
....|..|--- .... ....|--- .... ....|--- .... ....
....|..|G-2 .... ....|G-3 .... ....|G-1 .... ....
....|..|--- .... ....|--- .... ....|--- .... ....
....|..|A#2 .... ....|G-4 .... ....|A#1 .... ....
....|..|--- .... ....|--- .... ....|--- .... ....
....|..|--- .... ....|R-- .... ....|--- .... ....
....|..|--- .... ....|--- .... ....|--- .... ....
....|..|C-3 .... ....|G-4 .... ....|C-1 .... ....
....|..|--- .... ....|--- .... ....|--- .... ....
....|..|--- .... ....|R-- .... ....|--- .... ....
....|..|--- .... ....|--- .... ....|--- .... ....
....|..|A#2 .... ....|G-4 .... ....|A#1 .... ....
....|..|--- .... ....|--- .... ....|--- .... ....
....|..|--- .... ....|--- .... ....|--- .... ....
....|..|--- .... ....|--- .... ....|--- .... ....
....|..|--- .... ....|--- .... ....|G-5 .... ....
....|..|--- .... ....|--- .... ....|--- .... ....
....|..|F-2 .... ....|D-4 .... ....|--- .... ....
....|..|--- .... ....|--- .... ....|--- .... ....

[Pattern6]
....|..|G-2 1... ....|D-4 2... ....|G-1 1... ....
....|..|--- .... ....|--- .... ....|--- .... ....
....|..|G-2 .... ....|D-4 .... ....|G-1 .... ....
....|..|--- .... ....|--- .... ....|--- .... ....
....|..|R-- .... ....|R-- .... ....|R-- .... ....
....|..|--- .... ....|--- .... ....|--- .... ....
....|..|F-2 .... ....|D-4 .... ....|F-1 .... ....
....|..|--- .... ....|--- .... ....|--- .... ....
....|..|R-- .... ....|R-- .... ....|R-- .... ....
....|..|--- .... ....|--- .... ....|--- .... ....
....|..|G-2 .... ....|D-4 .... ....|G-1 .... ....
....|..|--- .... ....|--- .... ....|--- .... ....
....|..|R-- .... ....|R-- .... ....|R-- .... ....
....|..|--- .... ....|--- .... ....|--- .... ....
....|..|G-2 .... ....|G-3 .... ....|--- .... ....
....|..|--- .... ....|--- .... ....|--- .... ....
....|..|A#2 .... ....|G-4 .... ....|A#1 .... ....
....|..|--- .... ....|--- .... ....|--- .... ....
....|..|--- .... ....|R-- .... ....|R-- .... ....
....|..|--- .... ....|--- .... ....|--- .... ....
....|..|C-3 .... ....|G-4 .... ....|C-2 .... ....
....|..|--- .... ....|--- .... ....|--- .... ....
....|..|--- .... ....|R-- .... ....|R-- .... ....
....|..|--- .... ....|--- .... ....|--- .... ....
....|..|A#2 .... ....|G-4 .... ....|A#1 .... ....
....|..|--- .... ....|--- .... ....|--- .... ....
....|..|--- .... ....|--- .... ....|--- .... ....
....|..|--- .... ....|--- .... ....|--- .... ....
....|..|--- .... ....|--- .... ....|--- .... ....
....|..|--- .... ....|--- .... ....|--- .... ....
....|..|F-2 .... ....|D-4 .... ....|R-- .... ....
....|..|--- .... ....|--- .... ....|--- .... ....
....|..|G-2 .... ....|D-4 .... ....|G-1 .... ....
....|..|--- .... ....|--- .... ....|--- .... ....
....|..|G-2 .... ....|D-4 .... ....|G-1 .... ....
....|..|--- .... ....|--- .... ....|--- .... ....
....|..|R-- .... ....|R-- .... ....|R-- .... ....
....|..|--- .... ....|--- .... ....|--- .... ....
....|..|F-2 .... ....|D-4 .... ....|F-1 .... ....
....|..|--- .... ....|--- .... ....|--- .... ....
....|..|R-- .... ....|R-- .... ....|R-- .... ....
....|..|--- .... ....|--- .... ....|--- .... ....
....|..|G-2 .... ....|D-4 .... ....|G-1 .... ....
....|..|--- .... ....|--- .... ....|--- .... ....
....|..|--- .... ....|--- .... ....|--- .... ....
....|..|--- .... ....|--- .... ....|--- .... ....
....|..|--- .... ....|--- .... ....|--- .... ....
....|..|--- .... ....|--- .... ....|--- .... ....
....|..|R-- .... ....|C-5 .... ....|R-- .... ....
....|..|--- .... ....|--- .... ....|--- .... ....
....|..|--- .... ....|C-5 .... ....|--- .... ....
....|..|--- .... ....|--- .... ....|--- .... ....
....|..|--- .... ....|C-4 .... ....|--- .... ....
....|..|--- .... ....|--- .... ....|--- .... ....
....|..|--- .... ....|C-4 .... ....|--- .... ....
....|..|--- .... ....|--- .... ....|--- .... ....
....|..|--- .... ....|C-5 .... ....|--- .... ....
....|..|--- .... ....|--- .... ....|--- .... ....
....|..|--- .... ....|E-5 .... ....|C-5 .... ....
....|..|--- .... ....|--- .... ....|--- .... ....
....|..|--- .... ....|--- .... ....|--- .... ....
....|..|--- .... ....|--- .... ....|--- .... ....
....|..|--- .... ....|--- .... ....|--- .... ....
....|..|--- .... ....|R-- .... ....|R-- .... ....
....|..|G-2 .... ....|C-6 .... ....|F-5 .... ....
....|..|--- .... ....|--- .... ....|--- .... ....
....|..|--- .... ....|--- .... ....|--- .... ....
....|..|--- .... ....|--- .... ....|--- .... ....
....|..|G-2 .... ....|G-1 1... ....|--- .... ....
....|..|--- .... ....|--- .... ....|--- .... ....
....|..|--- .... ....|--- .... ....|--- .... ....
....|..|--- .... ....|--- .... ....|--- .... ....
....|..|G-2 .... ....|G-1 .... ....|--- .... ....
....|..|--- .... ....|--- .... ....|--- .... ....
....|..|--- .... ....|--- .... ....|--- .... ....
....|..|--- .... ....|--- .... ....|--- .... ....
....|..|G-2 .... ....|G-1 .... ....|--- .... ....
....|..|--- .... ....|--- .... ....|--- .... ....
....|..|G-2 .... ....|G-1 .... ....|--- .... ....
....|..|--- .... ....|--- .... ....|--- .... ....
....|..|R-- .... ....|R-- .... ....|--- .... ....
....|..|--- .... ....|--- .... ....|--- .... ....
....|..|G-2 .... ....|G-1 .... ....|--- .... ....
....|..|--- .... ....|--- .... ....|--- .... ....
....|..|--- .... ....|--- .... ....|--- .... ....
....|..|--- .... ....|--- .... ....|--- .... ....
....|..|G-2 .... ....|G-1 .... ....|--- .... ....
....|..|--- .... ....|--- .... ....|--- .... ....
....|..|G-2 .... ....|R-- .... ....|--- .... ....
....|..|--- .... ....|--- .... ....|--- .... ....
....|..|G-2 .... ....|--- .... ....|--- .... ....
....|..|--- .... ....|--- .... ....|--- .... ....
....|..|G-2 .... ....|C-6 2... ....|F-5 .... ....
....|..|--- .... ....|--- .... ....|G-3 .... ....
....|..|G-2 .... ....|B-5 .... ....|E-5 .... ....
....|..|--- .... ....|--- .... ....|--- .... ....
....|..|G-2 .... ....|G-1 1... ....|--- .... ....
....|..|--- .... ....|--- .... ....|--- .... ....
....|..|--- .... ....|--- .... ....|--- .... ....
....|..|--- .... ....|--- .... ....|--- .... ....
....|..|G-2 .... ....|G-1 .... ....|--- .... ....
....|..|--- .... ....|--- .... ....|--- .... ....
....|..|--- .... ....|--- .... ....|--- .... ....
....|..|--- .... ....|--- .... ....|--- .... ....
....|..|G-2 .... ....|G-1 .... ....|--- .... ....
....|..|--- .... ....|--- .... ....|--- .... ....
....|..|--- .... ....|--- .... ....|--- .... ....
....|..|--- .... ....|--- .... ....|--- .... ....
....|..|G-2 .... ....|G-1 .... ....|--- .... ....
....|..|--- .... ....|--- .... ....|--- .... ....
....|..|G-2 .... ....|G-1 .... ....|--- .... ....
....|..|--- .... ....|--- .... ....|--- .... ....
....|..|R-- .... ....|R-- .... ....|--- .... ....
....|..|--- .... ....|--- .... ....|--- .... ....
....|..|G-2 .... ....|G-1 .... ....|--- .... ....
....|..|--- .... ....|--- .... ....|--- .... ....
....|..|--- .... ....|--- .... ....|--- .... ....
....|..|--- .... ....|--- .... ....|--- .... ....
....|..|G-2 .... ....|G-1 .... ....|--- .... ....
....|..|--- .... ....|--- .... ....|--- .... ....
....|..|G-2 .... ....|G-1 .... ....|--- .... ....
....|..|--- .... ....|--- .... ....|--- .... ....
....|..|G-2 .... ....|G-1 .... ....|--- .... ....
....|..|--- .... ....|--- .... ....|--- .... ....
....|..|G-2 .... ....|G-1 .... ....|--- .... ....
....|..|--- .... ....|--- .... ....|--- .... ....
....|..|G-2 .... ....|G-1 .... ....|--- .... ....
....|..|--- .... ....|--- .... ....|--- .... ....

[Pattern7]
....|..|G-2 .... ....|C-6 2... ....|F-5 .... ....
....|..|--- .... ....|--- .... ....|--- .... ....
....|..|--- .... ....|--- .... ....|--- .... ....
....|..|--- .... ....|--- .... ....|--- .... ....
....|..|G-2 .... ....|G-1 1... ....|--- .... ....
....|..|--- .... ....|--- .... ....|--- .... ....
....|..|--- .... ....|--- .... ....|--- .... ....
....|..|--- .... ....|--- .... ....|--- .... ....
....|..|G-2 .... ....|G-1 .... ....|--- .... ....
....|..|--- .... ....|--- .... ....|--- .... ....
....|..|--- .... ....|--- .... ....|--- .... ....
....|..|--- .... ....|--- .... ....|--- .... ....
....|..|G-2 .... ....|G-1 .... ....|--- .... ....
....|..|--- .... ....|--- .... ....|--- .... ....
....|..|G-2 .... ....|G-1 .... ....|--- .... ....
....|..|--- .... ....|--- .... ....|--- .... ....
....|..|R-- .... ....|R-- .... ....|--- .... ....
....|..|--- .... ....|--- .... ....|--- .... ....
....|..|G-2 .... ....|G-1 .... ....|--- .... ....
....|..|--- .... ....|--- .... ....|--- .... ....
....|..|R-- .... ....|R-- .... ....|--- .... ....
....|..|--- .... ....|--- .... ....|--- .... ....
....|..|G-2 .... ....|G-1 .... ....|--- .... ....
....|..|--- .... ....|--- .... ....|--- .... ....
....|..|G-2 .... ....|G-1 .... ....|R-- .... ....
....|..|--- .... ....|--- .... ....|--- .... ....
....|..|G-2 .... ....|G-1 .... ....|--- .... ....
....|..|--- .... ....|--- .... ....|--- .... ....
....|..|G-2 .... ....|C-6 2... ....|F-5 .... ....
....|..|--- .... ....|--- .... ....|--- .... ....
....|..|G-2 .... ....|B-5 .... ....|E-5 .... ....
....|..|--- .... ....|--- .... ....|--- .... ....
....|..|G-2 .... ....|G-1 1... ....|--- .... ....
....|..|--- .... ....|--- .... ....|--- .... ....
....|..|--- .... ....|--- .... ....|--- .... ....
....|..|--- .... ....|--- .... ....|--- .... ....
....|..|G-2 .... ....|G-1 .... ....|--- .... ....
....|..|--- .... ....|--- .... ....|--- .... ....
....|..|--- .... ....|--- .... ....|--- .... ....
....|..|--- .... ....|--- .... ....|--- .... ....
....|..|G-2 .... ....|G-1 .... ....|--- .... ....
....|..|--- .... ....|--- .... ....|--- .... ....
....|..|--- .... ....|--- .... ....|--- .... ....
....|..|--- .... ....|--- .... ....|--- .... ....
....|..|G-2 .... ....|G-1 .... ....|--- .... ....
....|..|--- .... ....|--- .... ....|--- .... ....
....|..|G-2 .... ....|G-1 .... ....|--- .... ....
....|..|--- .... ....|--- .... ....|--- .... ....
....|..|R-- .... ....|R-- .... ....|--- .... ....
....|..|--- .... ....|--- .... ....|--- .... ....
....|..|G-2 .... ....|G-1 .... ....|--- .... ....
....|..|--- .... ....|--- .... ....|--- .... ....
....|..|--- .... ....|--- .... ....|--- .... ....
....|..|--- .... ....|--- .... ....|--- .... ....
....|..|G-2 .... ....|G-1 .... ....|--- .... ....
....|..|--- .... ....|--- .... ....|--- .... ....
....|..|G-2 .... ....|G-1 .... ....|--- .... ....
....|..|--- .... ....|--- .... ....|--- .... ....
....|..|G-2 .... ....|G-1 .... ....|--- .... ....
....|..|--- .... ....|--- .... ....|--- .... ....
....|..|G-2 .... ....|G-1 .... ....|--- .... ....
....|..|--- .... ....|--- .... ....|--- .... ....
....|..|G-2 .... ....|G-1 .... ....|--- .... ....
....|..|--- .... ....|--- .... ....|--- .... ....
....|..|G-2 .... ....|C-6 2... ....|F-5 .... ....
....|..|--- .... ....|--- .... ....|--- .... ....
....|..|--- .... ....|--- .... ....|--- .... ....
....|..|--- .... ....|--- .... ....|--- .... ....
....|..|G-2 .... ....|G-1 1... ....|--- .... ....
....|..|--- .... ....|--- .... ....|--- .... ....
....|..|--- .... ....|--- .... ....|--- .... ....
....|..|--- .... ....|--- .... ....|--- .... ....
....|..|G-2 .... ....|G-1 .... ....|--- .... ....
....|..|--- .... ....|--- .... ....|--- .... ....
....|..|--- .... ....|--- .... ....|--- .... ....
....|..|--- .... ....|--- .... ....|--- .... ....
....|..|G-2 .... ....|G-1 .... ....|--- .... ....
....|..|--- .... ....|--- .... ....|--- .... ....
....|..|G-2 .... ....|G-1 .... ....|--- .... ....
....|..|--- .... ....|--- .... ....|--- .... ....
....|..|R-- .... ....|R-- .... ....|--- .... ....
....|..|--- .... ....|--- .... ....|--- .... ....
....|..|G-2 .... ....|G-1 .... ....|--- .... ....
....|..|--- .... ....|--- .... ....|--- .... ....
....|..|--- .... ....|--- .... ....|--- .... ....
....|..|--- .... ....|--- .... ....|--- .... ....
....|..|G-2 .... ....|G-1 .... ....|--- .... ....
....|..|--- .... ....|--- .... ....|--- .... ....
....|..|G-2 .... ....|G-1 .... ....|R-- .... ....
....|..|--- .... ....|--- .... ....|--- .... ....
....|..|G-2 .... ....|G-1 .... ....|--- .... ....
....|..|--- .... ....|--- .... ....|--- .... ....
....|..|G-2 .... ....|C-6 2... ....|F-5 .... ....
....|..|--- .... ....|--- .... ....|--- .... ....
....|..|G-2 .... ....|B-5 .... ....|E-5 .... ....
....|..|--- .... ....|--- .... ....|--- .... ....
....|..|G-2 .... ....|G-1 1... ....|--- .... ....
....|..|--- .... ....|--- .... ....|--- .... ....
....|..|--- .... ....|--- .... ....|--- .... ....
....|..|--- .... ....|--- .... ....|--- .... ....
....|..|G-2 .... ....|G-1 .... ....|--- .... ....
....|..|--- .... ....|--- .... ....|--- .... ....
....|..|--- .... ....|--- .... ....|--- .... ....
....|..|--- .... ....|--- .... ....|--- .... ....
....|..|G-2 .... ....|G-1 .... ....|--- .... ....
....|..|--- .... ....|--- .... ....|--- .... ....
....|..|--- .... ....|--- .... ....|--- .... ....
....|..|--- .... ....|--- .... ....|--- .... ....
....|..|G-2 .... ....|G-1 .... ....|--- .... ....
....|..|--- .... ....|--- .... ....|--- .... ....
....|..|G-2 .... ....|G-1 .... ....|--- .... ....
....|..|--- .... ....|--- .... ....|--- .... ....
....|..|R-- .... ....|R-- .... ....|--- .... ....
....|..|--- .... ....|--- .... ....|--- .... ....
....|..|G-2 .... ....|G-1 .... ....|--- .... ....
....|..|--- .... ....|--- .... ....|--- .... ....
....|..|--- .... ....|--- .... ....|--- .... ....
....|..|--- .... ....|--- .... ....|--- .... ....
....|..|G-2 .... ....|G-1 .... ....|--- .... ....
....|..|--- .... ....|--- .... ....|--- .... ....
....|..|G-2 .... ....|G-1 .... ....|--- .... ....
....|..|--- .... ....|--- .... ....|--- .... ....
....|..|G-2 .... ....|G-1 .... ....|--- .... ....
....|..|--- .... ....|--- .... ....|--- .... ....
....|..|G-2 .... ....|G-1 .... ....|--- .... ....
....|..|--- .... ....|--- .... ....|--- .... ....
....|..|G-2 .... ....|G-1 .... ....|--- .... ....
....|..|--- .... ....|--- .... ....|--- .... ....

[Pattern8]
....|..|G-2 1... ....|C-6 2... ....|F-5 1... ....
....|..|--- .... ....|--- .... ....|--- .... ....
....|..|--- .... ....|--- .... ....|--- .... ....
....|..|--- .... ....|--- .... ....|--- .... ....
....|..|G-2 .... ....|G-1 1... ....|--- .... ....
....|..|--- .... ....|--- .... ....|--- .... ....
....|..|--- .... ....|--- .... ....|--- .... ....
....|..|--- .... ....|--- .... ....|--- .... ....
....|..|G-2 .... ....|G-1 .... ....|--- .... ....
....|..|--- .... ....|--- .... ....|--- .... ....
....|..|--- .... ....|--- .... ....|--- .... ....
....|..|--- .... ....|--- .... ....|--- .... ....
....|..|G-2 .... ....|G-1 .... ....|--- .... ....
....|..|--- .... ....|--- .... ....|--- .... ....
....|..|G-2 .... ....|G-1 .... ....|--- .... ....
....|..|--- .... ....|--- .... ....|--- .... ....
....|..|R-- .... ....|R-- .... ....|--- .... ....
....|..|--- .... ....|--- .... ....|--- .... ....
....|..|G-2 .... ....|G-1 .... ....|--- .... ....
....|..|--- .... ....|--- .... ....|--- .... ....
....|..|R-- .... ....|R-- .... ....|--- .... ....
....|..|--- .... ....|--- .... ....|--- .... ....
....|..|G-2 .... ....|G-1 .... ....|--- .... ....
....|..|--- .... ....|--- .... ....|--- .... ....
....|..|G-2 .... ....|G-1 .... ....|R-- .... ....
....|..|--- .... ....|--- .... ....|--- .... ....
....|..|G-2 .... ....|G-1 .... ....|--- .... ....
....|..|--- .... ....|--- .... ....|--- .... ....
....|..|G-2 .... ....|C-6 2... ....|F-5 .... ....
....|..|--- .... ....|--- .... ....|--- .... ....
....|..|G-2 .... ....|B-5 .... ....|E-5 .... ....
....|..|--- .... ....|--- .... ....|--- .... ....
....|..|G-2 .... ....|--- .... ....|--- .... ....
....|..|--- .... ....|--- .... ....|--- .... ....
....|..|--- .... ....|--- .... ....|--- .... ....
....|..|--- .... ....|--- .... ....|--- .... ....
....|..|G-2 .... ....|G-1 1... ....|--- .... ....
....|..|--- .... ....|--- .... ....|--- .... ....
....|..|G-2 .... ....|G-1 .... ....|--- .... ....
....|..|--- .... ....|--- .... ....|--- .... ....
....|..|G-2 .... ....|G-1 .... ....|--- .... ....
....|..|--- .... ....|--- .... ....|--- .... ....
....|..|G-2 .... ....|G-1 .... ....|--- .... ....
....|..|--- .... ....|--- .... ....|--- .... ....
....|..|G-2 .... ....|G-1 .... ....|--- .... ....
....|..|--- .... ....|--- .... ....|--- .... ....
....|..|G-2 .... ....|G-1 .... ....|--- .... ....
....|..|--- .... ....|--- .... ....|--- .... ....
....|..|--- .... ....|--- .... ....|--- .... ....
....|..|--- .... ....|--- .... ....|--- .... ....
....|..|G-2 .... ....|G-1 .... ....|--- .... ....
....|..|--- .... ....|--- .... ....|--- .... ....
....|..|F-2 .... ....|F-1 .... ....|--- .... ....
....|..|--- .... ....|--- .... ....|--- .... ....
....|..|G-2 .... ....|G-1 .... ....|--- .... ....
....|..|--- .... ....|--- .... ....|--- .... ....
....|..|--- .... ....|--- .... ....|--- .... ....
....|..|--- .... ....|--- .... ....|--- .... ....
....|..|G-2 .... ....|G-1 .... ....|--- .... ....
....|..|--- .... ....|--- .... ....|--- .... ....
....|..|F-2 .... ....|F-1 .... ....|--- .... ....
....|..|--- .... ....|--- .... ....|--- .... ....
....|..|--- .... ....|--- .... ....|--- .... ....
....|..|--- .... ....|R-- .... ....|R-- .... ....
....|..|C-3 .... ....|D-5 2... ....|--- .... ....
....|..|--- .... ....|--- .... ....|--- .... ....
....|..|--- .... ....|D#5 .... ....|--- .... ....
....|..|--- .... ....|--- .... ....|--- .... ....
....|..|C-3 .... ....|--- .... ....|--- .... ....
....|..|--- .... ....|--- .... ....|--- .... ....
....|..|--- .... ....|--- .... ....|G-4 .... ....
....|..|--- .... ....|--- .... ....|--- .... ....
....|..|C-3 .... ....|D#5 .... ....|A#4 .... ....
....|..|--- .... ....|R-- .... ....|--- .... ....
....|..|A#2 .... ....|--- .... ....|C-5 .... ....
....|..|--- .... ....|--- .... ....|--- .... ....
....|..|G-2 .... ....|--- .... ....|R-- .... ....
....|..|--- .... ....|--- .... ....|--- .... ....
....|..|C-3 .... ....|D#5 .... ....|C-5 .... ....
....|..|--- .... ....|R-- .... ....|--- .... ....
....|..|R-- .... ....|--- .... ....|--- .... ....
....|..|--- .... ....|--- .... ....|--- .... ....
....|..|C-3 .... ....|--- .... ....|--- .... ....
....|..|--- .... ....|--- .... ....|--- .... ....
....|..|R-- .... ....|D#5 .... ....|C-5 .... ....
....|..|--- .... ....|R-- .... ....|--- .... ....
....|..|A#2 .... ....|--- .... ....|A#4 .... ....
....|..|--- .... ....|--- .... ....|--- .... ....
....|..|C-3 .... ....|--- .... ....|C-5 .... ....
....|..|--- .... ....|--- .... ....|--- .... ....
....|..|C-3 .... ....|D#5 .... ....|D#5 .... ....
....|..|--- .... ....|--- .... ....|--- .... ....
....|..|A#2 .... ....|D-5 .... ....|C-5 .... ....
....|..|--- .... ....|--- .... ....|--- .... ....
....|..|--- .... ....|--- .... ....|R-- .... ....
....|..|--- .... ....|--- .... ....|--- .... ....
....|..|C-3 .... ....|D-5 .... ....|--- .... ....
....|..|--- .... ....|--- .... ....|--- .... ....
....|..|--- .... ....|D#5 .... ....|--- .... ....
....|..|--- .... ....|--- .... ....|--- .... ....
....|..|C-3 .... ....|--- .... ....|--- .... ....
....|..|--- .... ....|--- .... ....|--- .... ....
....|..|--- .... ....|--- .... ....|G-4 .... ....
....|..|--- .... ....|--- .... ....|--- .... ....
....|..|C-3 .... ....|D#5 .... ....|A#4 .... ....
....|..|--- .... ....|R-- .... ....|--- .... ....
....|..|A#2 .... ....|--- .... ....|C-5 .... ....
....|..|--- .... ....|--- .... ....|R-- .... ....
....|..|G-2 .... ....|--- .... ....|--- .... ....
....|..|--- .... ....|--- .... ....|A#4 .... ....
....|..|C-3 .... ....|D#5 .... ....|C-5 .... ....
....|..|--- .... ....|R-- .... ....|--- .... ....
....|..|R-- .... ....|--- .... ....|--- .... ....
....|..|--- .... ....|--- .... ....|--- .... ....
....|..|C-3 .... ....|--- .... ....|A#4 .... ....
....|..|--- .... ....|--- .... ....|--- .... ....
....|..|R-- .... ....|D#5 .... ....|G-4 .... ....
....|..|--- .... ....|R-- .... ....|--- .... ....
....|..|A#2 .... ....|--- .... ....|F#4 .... ....
....|..|--- .... ....|--- .... ....|--- .... ....
....|..|C-3 .... ....|--- .... ....|F-4 .... ....
....|..|--- .... ....|--- .... ....|--- .... ....
....|..|C-3 .... ....|D#5 .... ....|D#4 .... ....
....|..|--- .... ....|--- .... ....|--- .... ....
....|..|A#2 .... ....|D-5 .... ....|--- .... ....
....|..|--- .... ....|--- .... ....|--- .... ....
....|..|--- .... ....|--- .... ....|--- .... ....
....|..|--- .... ....|--- .... ....|--- .... ....

[Pattern9]
....|..|C-3 1... ....|D-5 2... ....|R-- 1... ....
....|..|--- .... ....|--- .... ....|--- .... ....
....|..|--- .... ....|D#5 .... ....|--- .... ....
....|..|--- .... ....|--- .... ....|--- .... ....
....|..|C-3 .... ....|--- .... ....|--- .... ....
....|..|--- .... ....|--- .... ....|--- .... ....
....|..|--- .... ....|--- .... ....|G-4 .... ....
....|..|--- .... ....|--- .... ....|--- .... ....
....|..|C-3 .... ....|D#5 .... ....|A#4 .... ....
....|..|--- .... ....|R-- .... ....|--- .... ....
....|..|A#2 .... ....|--- .... ....|C-5 .... ....
....|..|--- .... ....|--- .... ....|--- .... ....
....|..|G-2 .... ....|--- .... ....|R-- .... ....
....|..|--- .... ....|--- .... ....|--- .... ....
....|..|C-3 .... ....|D#5 .... ....|C-5 .... ....
....|..|--- .... ....|R-- .... ....|--- .... ....
....|..|R-- .... ....|--- .... ....|R-- .... ....
....|..|--- .... ....|--- .... ....|--- .... ....
....|..|C-3 .... ....|--- .... ....|C-5 .... ....
....|..|--- .... ....|--- .... ....|--- .... ....
....|..|R-- .... ....|D#5 .... ....|--- .... ....
....|..|--- .... ....|R-- .... ....|--- .... ....
....|..|A#2 .... ....|--- .... ....|A#4 .... ....
....|..|--- .... ....|--- .... ....|--- .... ....
....|..|C-3 .... ....|--- .... ....|C-5 .... ....
....|..|--- .... ....|--- .... ....|--- .... ....
....|..|C-3 .... ....|D#5 .... ....|R-- .... ....
....|..|--- .... ....|--- .... ....|--- .... ....
....|..|A#2 .... ....|D-5 .... ....|A#1 .... ....
....|..|--- .... ....|--- .... ....|--- .... ....
....|..|--- .... ....|--- .... ....|--- .... ....
....|..|--- .... ....|--- .... ....|--- .... ....
....|..|C-3 .... ....|D-5 .... ....|C-2 .... ....
....|..|--- .... ....|--- .... ....|--- .... ....
....|..|--- .... ....|D#5 .... ....|--- .... ....
....|..|--- .... ....|--- .... ....|--- .... ....
....|..|C-3 .... ....|--- .... ....|C-2 .... ....
....|..|--- .... ....|--- .... ....|--- .... ....
....|..|--- .... ....|--- .... ....|--- .... ....
....|..|--- .... ....|--- .... ....|--- .... ....
....|..|C-3 .... ....|D#5 .... ....|C-2 .... ....
....|..|--- .... ....|R-- .... ....|--- .... ....
....|..|A#2 .... ....|--- .... ....|F-4 .... ....
....|..|--- .... ....|--- .... ....|--- .... ....
....|..|G-2 .... ....|--- .... ....|G-4 .... ....
....|..|--- .... ....|--- .... ....|--- .... ....
....|..|C-3 .... ....|D#5 .... ....|A#4 .... ....
....|..|--- .... ....|R-- .... ....|--- .... ....
....|..|R-- .... ....|--- .... ....|F-5 .... ....
....|..|--- .... ....|--- .... ....|--- .... ....
....|..|--- .... ....|--- .... ....|A#4 .... ....
....|..|--- .... ....|--- .... ....|--- .... ....
....|..|F-2 .... ....|D#5 .... ....|G-4 .... ....
....|..|--- .... ....|R-- .... ....|--- .... ....
....|..|F-2 .... ....|--- .... ....|F#4 .... ....
....|..|--- .... ....|--- .... ....|--- .... ....
....|..|F#2 .... ....|--- .... ....|F-4 .... ....
....|..|--- .... ....|--- .... ....|--- .... ....
....|..|F#2 .... ....|D#5 .... ....|D#4 .... ....
....|..|--- .... ....|R-- .... ....|--- .... ....
....|..|G-2 .... ....|--- .... ....|G-1 .... ....
....|..|--- .... ....|--- .... ....|--- .... ....
....|..|G#2 .... ....|--- .... ....|G#1 .... ....
....|..|--- .... ....|--- .... ....|--- .... ....
....|..|A#2 .... ....|D-5 .... ....|A#1 .... ....
....|..|--- .... ....|--- .... ....|--- .... ....
....|..|--- .... ....|--- .... ....|--- .... ....
....|..|--- .... ....|--- .... ....|--- .... ....
....|..|A#2 .... ....|R-- .... ....|A#1 .... ....
....|..|--- .... ....|--- .... ....|--- .... ....
....|..|--- .... ....|--- .... ....|--- .... ....
....|..|--- .... ....|--- .... ....|--- .... ....
....|..|A#2 .... ....|D-5 .... ....|A#1 .... ....
....|..|--- .... ....|R-- .... ....|--- .... ....
....|..|F-2 .... ....|--- .... ....|F-4 .... ....
....|..|--- .... ....|--- .... ....|--- .... ....
....|..|--- .... ....|--- .... ....|G#4 .... ....
....|..|--- .... ....|--- .... ....|--- .... ....
....|..|A#2 .... ....|D-5 .... ....|A#4 .... ....
....|..|--- .... ....|R-- .... ....|--- .... ....
....|..|R-- .... ....|--- .... ....|R-- .... ....
....|..|--- .... ....|--- .... ....|--- .... ....
....|..|A#2 .... ....|--- .... ....|A#4 .... ....
....|..|--- .... ....|--- .... ....|--- .... ....
....|..|R-- .... ....|--- .... ....|--- .... ....
....|..|--- .... ....|--- .... ....|--- .... ....
....|..|A#2 .... ....|--- .... ....|--- .... ....
....|..|--- .... ....|--- .... ....|--- .... ....
....|..|R-- .... ....|--- .... ....|--- .... ....
....|..|--- .... ....|--- .... ....|--- .... ....
....|..|A#2 .... ....|D-5 .... ....|--- .... ....
....|..|--- .... ....|--- .... ....|--- .... ....
....|..|G#2 .... ....|C-5 .... ....|G#1 .... ....
....|..|--- .... ....|--- .... ....|--- .... ....
....|..|--- .... ....|A#3 .... ....|--- .... ....
....|..|--- .... ....|--- .... ....|--- .... ....
....|..|A#2 .... ....|--- .... ....|A#1 .... ....
....|..|--- .... ....|--- .... ....|--- .... ....
....|..|--- .... ....|--- .... ....|--- .... ....
....|..|--- .... ....|--- .... ....|--- .... ....
....|..|A#2 .... ....|--- .... ....|A#1 .... ....
....|..|--- .... ....|--- .... ....|--- .... ....
....|..|--- .... ....|R-- .... ....|--- .... ....
....|..|--- .... ....|--- .... ....|--- .... ....
....|..|A#2 .... ....|--- .... ....|D#5 .... ....
....|..|--- .... ....|--- .... ....|--- .... ....
....|..|G#2 .... ....|--- .... ....|--- .... ....
....|..|--- .... ....|--- .... ....|--- .... ....
....|..|F-2 .... ....|--- .... ....|R-- .... ....
....|..|--- .... ....|--- .... ....|--- .... ....
....|..|A#2 .... ....|--- .... ....|A#1 .... ....
....|..|--- .... ....|--- .... ....|--- .... ....
....|..|R-- .... ....|D-5 .... ....|--- .... ....
....|..|--- .... ....|R-- .... ....|--- .... ....
....|..|A#2 .... ....|--- .... ....|A#4 .... ....
....|..|--- .... ....|--- .... ....|--- .... ....
....|..|R-- .... ....|--- .... ....|R-- .... ....
....|..|--- .... ....|--- .... ....|--- .... ....
....|..|F-2 .... ....|D-5 .... ....|--- .... ....
....|..|--- .... ....|R-- .... ....|--- .... ....
....|..|--- .... ....|--- .... ....|A#4 .... ....
....|..|--- .... ....|--- .... ....|--- .... ....
....|..|--- .... ....|--- .... ....|C#5 .... ....
....|..|--- .... ....|--- .... ....|--- .... ....
....|..|--- .... ....|--- .... ....|A#4 .... ....
....|..|--- .... ....|--- .... ....|--- .... ....
....|..|--- .... ....|--- .... ....|--- .... ....
....|..|--- .... ....|--- .... ....|--- .... ....

[Pattern10]
....|..|C-3 1... ....|D-5 2... ....|C-5 1... ....
....|..|--- .... ....|--- .... ....|--- .... ....
....|..|--- .... ....|D#5 .... ....|R-- .... ....
....|..|--- .... ....|--- .... ....|--- .... ....
....|..|C-3 .... ....|--- .... ....|--- .... ....
....|..|--- .... ....|--- .... ....|--- .... ....
....|..|--- .... ....|--- .... ....|G-4 .... ....
....|..|--- .... ....|--- .... ....|--- .... ....
....|..|C-3 .... ....|D#5 .... ....|A#4 .... ....
....|..|--- .... ....|R-- .... ....|--- .... ....
....|..|A#2 .... ....|--- .... ....|C-5 .... ....
....|..|--- .... ....|--- .... ....|--- .... ....
....|..|G-2 .... ....|--- .... ....|R-- .... ....
....|..|--- .... ....|--- .... ....|--- .... ....
....|..|C-3 .... ....|D#5 .... ....|C-5 .... ....
....|..|--- .... ....|R-- .... ....|--- .... ....
....|..|R-- .... ....|--- .... ....|R-- .... ....
....|..|--- .... ....|--- .... ....|--- .... ....
....|..|C-3 .... ....|--- .... ....|C-5 .... ....
....|..|--- .... ....|--- .... ....|--- .... ....
....|..|R-- .... ....|D#5 .... ....|--- .... ....
....|..|--- .... ....|R-- .... ....|A#4 .... ....
....|..|A#2 .... ....|--- .... ....|C-5 .... ....
....|..|--- .... ....|--- .... ....|--- .... ....
....|..|C-3 .... ....|--- .... ....|R-- .... ....
....|..|--- .... ....|--- .... ....|--- .... ....
....|..|C-3 .... ....|D#5 .... ....|C-5 .... ....
....|..|--- .... ....|--- .... ....|--- .... ....
....|..|A#2 .... ....|D-5 .... ....|A#1 .... ....
....|..|--- .... ....|--- .... ....|--- .... ....
....|..|--- .... ....|--- .... ....|--- .... ....
....|..|--- .... ....|--- .... ....|--- .... ....
....|..|C-3 .... ....|D-5 .... ....|C-2 .... ....
....|..|--- .... ....|--- .... ....|--- .... ....
....|..|--- .... ....|D#5 .... ....|--- .... ....
....|..|--- .... ....|--- .... ....|--- .... ....
....|..|C-3 .... ....|--- .... ....|C-2 .... ....
....|..|--- .... ....|--- .... ....|--- .... ....
....|..|--- .... ....|--- .... ....|--- .... ....
....|..|--- .... ....|--- .... ....|--- .... ....
....|..|C-3 .... ....|D#5 .... ....|C-2 .... ....
....|..|--- .... ....|--- .... ....|--- .... ....
....|..|A#2 .... ....|R-- .... ....|F-4 .... ....
....|..|--- .... ....|--- .... ....|--- .... ....
....|..|G-2 .... ....|--- .... ....|G-4 .... ....
....|..|--- .... ....|--- .... ....|--- .... ....
....|..|C-3 .... ....|--- .... ....|A#4 .... ....
....|..|--- .... ....|--- .... ....|--- .... ....
....|..|R-- .... ....|D#5 .... ....|C-5 .... ....
....|..|--- .... ....|R-- .... ....|--- .... ....
....|..|--- .... ....|--- .... ....|A#4 .... ....
....|..|--- .... ....|--- .... ....|--- .... ....
....|..|--- .... ....|--- .... ....|G-4 .... ....
....|..|--- .... ....|--- .... ....|--- .... ....
....|..|--- .... ....|D#5 .... ....|F#4 .... ....
....|..|--- .... ....|R-- .... ....|--- .... ....
....|..|C-3 .... ....|--- .... ....|F-4 .... ....
....|..|--- .... ....|--- .... ....|--- .... ....
....|..|C-3 .... ....|--- .... ....|D#4 .... ....
....|..|--- .... ....|--- .... ....|--- .... ....
....|..|C-3 .... ....|--- .... ....|C-4 .... ....
....|..|--- .... ....|--- .... ....|--- .... ....
....|..|--- .... ....|--- .... ....|--- .... ....
....|..|--- .... ....|--- .... ....|--- .... ....
....|..|D-3 .... ....|E-5 .... ....|D-2 .... ....
....|..|--- .... ....|--- .... ....|--- .... ....
....|..|--- .... ....|F-5 .... ....|--- .... ....
....|..|--- .... ....|--- .... ....|--- .... ....
....|..|D-3 .... ....|--- .... ....|D-2 .... ....
....|..|--- .... ....|--- .... ....|--- .... ....
....|..|D-3 .... ....|--- .... ....|D-2 .... ....
....|..|--- .... ....|--- .... ....|--- .... ....
....|..|D-3 .... ....|F-5 .... ....|D-2 .... ....
....|..|--- .... ....|--- .... ....|--- .... ....
....|..|--- .... ....|R-- .... ....|--- .... ....
....|..|--- .... ....|--- .... ....|--- .... ....
....|..|D-3 .... ....|--- .... ....|D-2 .... ....
....|..|--- .... ....|--- .... ....|--- .... ....
....|..|D-3 .... ....|--- .... ....|A-3 .... ....
....|..|--- .... ....|--- .... ....|--- .... ....
....|..|D-3 .... ....|F-5 .... ....|C-4 .... ....
....|..|--- .... ....|R-- .... ....|--- .... ....
....|..|D-3 .... ....|--- .... ....|D-4 .... ....
....|..|--- .... ....|--- .... ....|--- .... ....
....|..|--- .... ....|--- .... ....|--- .... ....
....|..|--- .... ....|--- .... ....|--- .... ....
....|..|D-3 .... ....|F-5 .... ....|A-3 .... ....
....|..|--- .... ....|R-- .... ....|--- .... ....
....|..|D-3 .... ....|--- .... ....|C-4 .... ....
....|..|--- .... ....|--- .... ....|--- .... ....
....|..|D-3 .... ....|F-5 .... ....|D-4 .... ....
....|..|--- .... ....|R-- .... ....|--- .... ....
....|..|D-3 .... ....|--- .... ....|D-2 .... ....
....|..|--- .... ....|--- .... ....|--- .... ....
....|..|D-3 .... ....|--- .... ....|D-2 .... ....
....|..|--- .... ....|--- .... ....|--- .... ....
....|..|D-3 .... ....|F#5 .... ....|D-2 .... ....
....|..|--- .... ....|--- .... ....|--- .... ....
....|..|--- .... ....|--- .... ....|--- .... ....
....|..|--- .... ....|--- .... ....|--- .... ....
....|..|D-3 .... ....|--- .... ....|D-2 .... ....
....|..|--- .... ....|--- .... ....|--- .... ....
....|..|D-3 .... ....|--- .... ....|D-2 .... ....
....|..|--- .... ....|--- .... ....|--- .... ....
....|..|D-3 .... ....|F#5 .... ....|D-2 .... ....
....|..|--- .... ....|--- .... ....|--- .... ....
....|..|--- .... ....|R-- .... ....|A-3 .... ....
....|..|--- .... ....|--- .... ....|--- .... ....
....|..|D-3 .... ....|--- .... ....|C-4 .... ....
....|..|--- .... ....|--- .... ....|--- .... ....
....|..|D-3 .... ....|--- .... ....|D-4 .... ....
....|..|--- .... ....|--- .... ....|--- .... ....
....|..|R-- .... ....|F#5 .... ....|--- .... ....
....|..|--- .... ....|R-- .... ....|--- .... ....
....|..|D-3 .... ....|--- .... ....|--- .... ....
....|..|--- .... ....|--- .... ....|--- .... ....
....|..|D-3 .... ....|--- .... ....|C-4 .... ....
....|..|--- .... ....|--- .... ....|--- .... ....
....|..|D-3 .... ....|F#5 .... ....|A-3 .... ....
....|..|--- .... ....|R-- .... ....|--- .... ....
....|..|D-3 .... ....|--- .... ....|C-4 .... ....
....|..|--- .... ....|--- .... ....|--- .... ....
....|..|D-3 .... ....|--- .... ....|D-4 .... ....
....|..|--- .... ....|--- .... ....|--- .... ....
....|..|--- .... ....|--- .... ....|--- .... ....
....|..|--- .... ....|--- .... ....|--- .... ....
....|..|--- .... ....|--- .... ....|--- .... ....
....|..|--- .... ....|--- .... ....|R-- .... ....

[Pattern11]
....|..|G-2 1... ....|C-6 2... ....|F-5 1... ....
....|..|--- .... ....|--- .... ....|--- .... ....
....|..|--- .... ....|--- .... ....|--- .... ....
....|..|--- .... ....|--- .... ....|--- .... ....
....|..|G-2 .... ....|G-1 1... ....|--- .... ....
....|..|--- .... ....|--- .... ....|--- .... ....
....|..|--- .... ....|--- .... ....|--- .... ....
....|..|--- .... ....|--- .... ....|--- .... ....
....|..|G-2 .... ....|G-1 .... ....|--- .... ....
....|..|--- .... ....|--- .... ....|--- .... ....
....|..|--- .... ....|--- .... ....|--- .... ....
....|..|--- .... ....|--- .... ....|--- .... ....
....|..|G-2 .... ....|G-1 .... ....|--- .... ....
....|..|--- .... ....|--- .... ....|--- .... ....
....|..|G-2 .... ....|G-1 .... ....|--- .... ....
....|..|--- .... ....|--- .... ....|--- .... ....
....|..|R-- .... ....|R-- .... ....|--- .... ....
....|..|--- .... ....|--- .... ....|--- .... ....
....|..|G-2 .... ....|G-1 .... ....|--- .... ....
....|..|--- .... ....|--- .... ....|--- .... ....
....|..|--- .... ....|--- .... ....|--- .... ....
....|..|--- .... ....|--- .... ....|--- .... ....
....|..|G-2 .... ....|G-1 .... ....|--- .... ....
....|..|--- .... ....|--- .... ....|--- .... ....
....|..|G-2 .... ....|G-1 .... ....|R-- .... ....
....|..|--- .... ....|--- .... ....|--- .... ....
....|..|G-2 .... ....|G-1 .... ....|--- .... ....
....|..|--- .... ....|--- .... ....|--- .... ....
....|..|G-2 .... ....|C-6 2... ....|F-5 .... ....
....|..|--- .... ....|--- .... ....|--- .... ....
....|..|G-2 .... ....|B-5 .... ....|E-5 .... ....
....|..|--- .... ....|--- .... ....|--- .... ....
....|..|G-2 .... ....|G-1 1... ....|--- .... ....
....|..|--- .... ....|--- .... ....|--- .... ....
....|..|--- .... ....|--- .... ....|--- .... ....
....|..|--- .... ....|--- .... ....|--- .... ....
....|..|G-2 .... ....|G-1 .... ....|--- .... ....
....|..|--- .... ....|--- .... ....|--- .... ....
....|..|--- .... ....|--- .... ....|--- .... ....
....|..|--- .... ....|--- .... ....|--- .... ....
....|..|G-2 .... ....|G-1 .... ....|--- .... ....
....|..|--- .... ....|--- .... ....|--- .... ....
....|..|--- .... ....|G-1 .... ....|--- .... ....
....|..|--- .... ....|--- .... ....|--- .... ....
....|..|G-2 .... ....|R-- .... ....|--- .... ....
....|..|--- .... ....|--- .... ....|--- .... ....
....|..|G-2 .... ....|G-1 .... ....|--- .... ....
....|..|--- .... ....|--- .... ....|--- .... ....
....|..|R-- .... ....|--- .... ....|--- .... ....
....|..|--- .... ....|--- .... ....|--- .... ....
....|..|G-2 .... ....|G-1 .... ....|--- .... ....
....|..|--- .... ....|--- .... ....|--- .... ....
....|..|R-- .... ....|G-1 .... ....|--- .... ....
....|..|--- .... ....|--- .... ....|--- .... ....
....|..|G-2 .... ....|G-1 .... ....|--- .... ....
....|..|--- .... ....|--- .... ....|--- .... ....
....|..|G-2 .... ....|G-1 .... ....|--- .... ....
....|..|--- .... ....|--- .... ....|--- .... ....
....|..|G-2 .... ....|G-1 .... ....|--- .... ....
....|..|--- .... ....|--- .... ....|--- .... ....
....|..|G-2 .... ....|G-1 .... ....|--- .... ....
....|..|--- .... ....|--- .... ....|--- .... ....
....|..|G-2 .... ....|--- .... ....|--- .... ....
....|..|--- .... ....|--- .... ....|--- .... ....
....|..|G-2 .... ....|G-1 .... ....|F-5 .... ....
....|..|--- .... ....|--- .... ....|--- .... ....
....|..|--- .... ....|--- .... ....|--- .... ....
....|..|--- .... ....|--- .... ....|--- .... ....
....|..|G-2 .... ....|G-1 .... ....|--- .... ....
....|..|--- .... ....|--- .... ....|--- .... ....
....|..|--- .... ....|--- .... ....|--- .... ....
....|..|--- .... ....|--- .... ....|--- .... ....
....|..|G-2 .... ....|G-1 .... ....|--- .... ....
....|..|--- .... ....|--- .... ....|--- .... ....
....|..|--- .... ....|G-1 .... ....|--- .... ....
....|..|--- .... ....|--- .... ....|--- .... ....
....|..|G-2 .... ....|R-- .... ....|--- .... ....
....|..|--- .... ....|--- .... ....|--- .... ....
....|..|G-2 .... ....|G-1 .... ....|--- .... ....
....|..|--- .... ....|--- .... ....|--- .... ....
....|..|R-- .... ....|R-- .... ....|--- .... ....
....|..|--- .... ....|--- .... ....|--- .... ....
....|..|G-2 .... ....|G-1 .... ....|--- .... ....
....|..|--- .... ....|--- .... ....|--- .... ....
....|..|R-- .... ....|G-1 .... ....|--- .... ....
....|..|--- .... ....|--- .... ....|--- .... ....
....|..|G-2 .... ....|G-1 .... ....|--- .... ....
....|..|--- .... ....|--- .... ....|--- .... ....
....|..|G-2 .... ....|G-1 .... ....|R-- .... ....
....|..|--- .... ....|--- .... ....|--- .... ....
....|..|G-2 .... ....|G-1 .... ....|--- .... ....
....|..|--- .... ....|--- .... ....|--- .... ....
....|..|G-2 .... ....|C-6 2... ....|F-5 .... ....
....|..|--- .... ....|--- .... ....|--- .... ....
....|..|G-2 .... ....|B-5 .... ....|E-5 .... ....
....|..|--- .... ....|--- .... ....|--- .... ....
....|..|G-2 .... ....|G-1 1... ....|--- .... ....
....|..|--- .... ....|--- .... ....|--- .... ....
....|..|--- .... ....|--- .... ....|--- .... ....
....|..|--- .... ....|--- .... ....|--- .... ....
....|..|G-2 .... ....|G-1 .... ....|--- .... ....
....|..|--- .... ....|--- .... ....|--- .... ....
....|..|G-2 .... ....|G-1 .... ....|--- .... ....
....|..|--- .... ....|--- .... ....|--- .... ....
....|..|G-2 .... ....|G-1 .... ....|--- .... ....
....|..|--- .... ....|--- .... ....|--- .... ....
....|..|G-2 .... ....|G-1 .... ....|--- .... ....
....|..|--- .... ....|--- .... ....|--- .... ....
....|..|G-2 .... ....|G-1 .... ....|--- .... ....
....|..|--- .... ....|--- .... ....|--- .... ....
....|..|G-2 .... ....|G-1 .... ....|--- .... ....
....|..|--- .... ....|--- .... ....|--- .... ....
....|..|--- .... ....|--- .... ....|--- .... ....
....|..|--- .... ....|--- .... ....|--- .... ....
....|..|G-2 .... ....|G-1 .... ....|--- .... ....
....|..|--- .... ....|--- .... ....|--- .... ....
....|..|F-2 .... ....|F-1 .... ....|--- .... ....
....|..|--- .... ....|--- .... ....|--- .... ....
....|..|G-2 .... ....|G-1 .... ....|--- .... ....
....|..|--- .... ....|--- .... ....|--- .... ....
....|..|--- .... ....|--- .... ....|--- .... ....
....|..|--- .... ....|--- .... ....|--- .... ....
....|..|G-2 .... ....|G-1 .... ....|--- .... ....
....|..|--- .... ....|--- .... ....|--- .... ....
....|..|F-2 .... ....|F-1 .... ....|--- .... ....
....|..|--- .... ....|--- .... ....|--- .... ....
....|..|--- .... ....|--- .... ....|--- .... ....
....|..|--- .... ....|--- .... ....|--- .... ....

[Pattern12]
....|..|G-2 1... ....|C-6 2... ....|F-5 1... ....
....|..|--- .... ....|--- .... ....|--- .... ....
....|..|--- .... ....|--- .... ....|--- .... ....
....|..|--- .... ....|--- .... ....|--- .... ....
....|..|G-2 .... ....|G-1 1... ....|--- .... ....
....|..|--- .... ....|--- .... ....|--- .... ....
....|..|--- .... ....|--- .... ....|--- .... ....
....|..|--- .... ....|--- .... ....|--- .... ....
....|..|G-2 .... ....|G-1 .... ....|--- .... ....
....|..|--- .... ....|--- .... ....|--- .... ....
....|..|--- .... ....|--- .... ....|--- .... ....
....|..|--- .... ....|--- .... ....|--- .... ....
....|..|G-2 .... ....|G-1 .... ....|--- .... ....
....|..|--- .... ....|--- .... ....|--- .... ....
....|..|G-2 .... ....|G-1 .... ....|--- .... ....
....|..|--- .... ....|--- .... ....|--- .... ....
....|..|R-- .... ....|R-- .... ....|--- .... ....
....|..|--- .... ....|--- .... ....|--- .... ....
....|..|G-2 .... ....|G-1 .... ....|--- .... ....
....|..|--- .... ....|--- .... ....|--- .... ....
....|..|--- .... ....|--- .... ....|--- .... ....
....|..|--- .... ....|--- .... ....|--- .... ....
....|..|G-2 .... ....|G-1 .... ....|--- .... ....
....|..|--- .... ....|--- .... ....|--- .... ....
....|..|G-2 .... ....|G-1 .... ....|R-- .... ....
....|..|--- .... ....|--- .... ....|--- .... ....
....|..|G-2 .... ....|G-1 .... ....|--- .... ....
....|..|--- .... ....|--- .... ....|--- .... ....
....|..|G-2 .... ....|C-6 2... ....|F-5 .... ....
....|..|--- .... ....|--- .... ....|--- .... ....
....|..|G-2 .... ....|B-5 .... ....|E-5 .... ....
....|..|--- .... ....|--- .... ....|--- .... ....
....|..|G-2 .... ....|G-1 1... ....|--- .... ....
....|..|--- .... ....|--- .... ....|--- .... ....
....|..|--- .... ....|--- .... ....|--- .... ....
....|..|--- .... ....|--- .... ....|--- .... ....
....|..|G-2 .... ....|G-1 .... ....|--- .... ....
....|..|--- .... ....|--- .... ....|--- .... ....
....|..|--- .... ....|--- .... ....|--- .... ....
....|..|--- .... ....|--- .... ....|--- .... ....
....|..|G-2 .... ....|G-1 .... ....|--- .... ....
....|..|--- .... ....|--- .... ....|--- .... ....
....|..|--- .... ....|--- .... ....|--- .... ....
....|..|--- .... ....|--- .... ....|--- .... ....
....|..|G-2 .... ....|G-1 .... ....|--- .... ....
....|..|--- .... ....|--- .... ....|--- .... ....
....|..|G-2 .... ....|G-1 .... ....|--- .... ....
....|..|--- .... ....|--- .... ....|--- .... ....
....|..|R-- .... ....|R-- .... ....|--- .... ....
....|..|--- .... ....|--- .... ....|--- .... ....
....|..|G-2 .... ....|G-1 .... ....|--- .... ....
....|..|--- .... ....|--- .... ....|--- .... ....
....|..|R-- .... ....|R-- .... ....|--- .... ....
....|..|--- .... ....|--- .... ....|--- .... ....
....|..|G-2 .... ....|G-1 .... ....|--- .... ....
....|..|--- .... ....|--- .... ....|--- .... ....
....|..|G-2 .... ....|G-1 .... ....|--- .... ....
....|..|--- .... ....|--- .... ....|--- .... ....
....|..|G-2 .... ....|G-1 .... ....|--- .... ....
....|..|--- .... ....|--- .... ....|--- .... ....
....|..|G-2 .... ....|G-1 .... ....|--- .... ....
....|..|--- .... ....|--- .... ....|--- .... ....
....|..|G-2 .... ....|G-1 .... ....|--- .... ....
....|..|--- .... ....|--- .... ....|--- .... ....
....|..|G-2 .... ....|C-6 2... ....|F-5 .... ....
....|..|--- .... ....|--- .... ....|--- .... ....
....|..|--- .... ....|--- .... ....|--- .... ....
....|..|--- .... ....|--- .... ....|--- .... ....
....|..|G-2 .... ....|G-1 1... ....|--- .... ....
....|..|--- .... ....|--- .... ....|--- .... ....
....|..|--- .... ....|--- .... ....|--- .... ....
....|..|--- .... ....|--- .... ....|--- .... ....
....|..|G-2 .... ....|G-1 .... ....|--- .... ....
....|..|--- .... ....|--- .... ....|--- .... ....
....|..|--- .... ....|--- .... ....|--- .... ....
....|..|--- .... ....|--- .... ....|--- .... ....
....|..|G-2 .... ....|G-1 .... ....|--- .... ....
....|..|--- .... ....|--- .... ....|--- .... ....
....|..|G-2 .... ....|G-1 .... ....|--- .... ....
....|..|--- .... ....|--- .... ....|--- .... ....
....|..|R-- .... ....|R-- .... ....|--- .... ....
....|..|--- .... ....|--- .... ....|--- .... ....
....|..|G-2 .... ....|G-1 .... ....|--- .... ....
....|..|--- .... ....|--- .... ....|--- .... ....
....|..|R-- .... ....|R-- .... ....|--- .... ....
....|..|--- .... ....|--- .... ....|--- .... ....
....|..|G-2 .... ....|G-1 .... ....|--- .... ....
....|..|--- .... ....|--- .... ....|--- .... ....
....|..|G-2 .... ....|G-1 .... ....|R-- .... ....
....|..|--- .... ....|--- .... ....|--- .... ....
....|..|G-2 .... ....|G-1 .... ....|--- .... ....
....|..|--- .... ....|--- .... ....|--- .... ....
....|..|G-2 .... ....|C-6 2... ....|F-5 .... ....
....|..|--- .... ....|--- .... ....|--- .... ....
....|..|G-2 .... ....|B-5 .... ....|E-5 .... ....
....|..|--- .... ....|--- .... ....|--- .... ....
....|..|G-2 .... ....|G-1 1... ....|--- .... ....
....|..|--- .... ....|--- .... ....|--- .... ....
....|..|--- .... ....|--- .... ....|--- .... ....
....|..|--- .... ....|--- .... ....|--- .... ....
....|..|G-2 .... ....|G-1 .... ....|--- .... ....
....|..|--- .... ....|--- .... ....|--- .... ....
....|..|G-2 .... ....|G-1 .... ....|--- .... ....
....|..|--- .... ....|--- .... ....|--- .... ....
....|..|G-2 .... ....|G-1 .... ....|--- .... ....
....|..|--- .... ....|--- .... ....|--- .... ....
....|..|G-2 .... ....|G-1 .... ....|--- .... ....
....|..|--- .... ....|--- .... ....|--- .... ....
....|..|G-2 .... ....|G-1 .... ....|--- .... ....
....|..|--- .... ....|--- .... ....|--- .... ....
....|..|G-2 .... ....|G-1 .... ....|--- .... ....
....|..|--- .... ....|--- .... ....|--- .... ....
....|..|--- .... ....|--- .... ....|--- .... ....
....|..|--- .... ....|--- .... ....|--- .... ....
....|..|G-2 .... ....|G-1 .... ....|--- .... ....
....|..|--- .... ....|--- .... ....|--- .... ....
....|..|F-2 .... ....|F-1 .... ....|--- .... ....
....|..|--- .... ....|--- .... ....|--- .... ....
....|..|G-2 .... ....|G-1 .... ....|--- .... ....
....|..|--- .... ....|--- .... ....|--- .... ....
....|..|--- .... ....|--- .... ....|--- .... ....
....|..|--- .... ....|--- .... ....|--- .... ....
....|..|G-2 .... ....|G-1 .... ....|--- .... ....
....|..|--- .... ....|--- .... ....|--- .... ....
....|..|F-2 .... ....|F-1 .... ....|--- .... ....
....|..|--- .... ....|--- .... ....|--- .... ....
....|..|--- .... ....|--- .... ....|--- .... ....
....|..|--- .... ....|--- .... ....|--- .... ....

[Pattern13]
....|..|C-3 1... ....|D-5 2... ....|A#4 1... ....
....|..|--- .... ....|--- .... ....|--- .... ....
....|..|--- .... ....|D#5 .... ....|--- .... ....
....|..|--- .... ....|--- .... ....|--- .... ....
....|..|C-3 .... ....|--- .... ....|--- .... ....
....|..|--- .... ....|--- .... ....|--- .... ....
....|..|--- .... ....|--- .... ....|--- .... ....
....|..|--- .... ....|--- .... ....|--- .... ....
....|..|C-3 .... ....|D#5 .... ....|F-4 .... ....
....|..|--- .... ....|R-- .... ....|--- .... ....
....|..|A#2 .... ....|--- .... ....|--- .... ....
....|..|--- .... ....|--- .... ....|--- .... ....
....|..|G-2 .... ....|--- .... ....|R-- .... ....
....|..|--- .... ....|--- .... ....|--- .... ....
....|..|C-3 .... ....|D#5 .... ....|F-4 .... ....
....|..|--- .... ....|R-- .... ....|--- .... ....
....|..|R-- .... ....|--- .... ....|R-- .... ....
....|..|--- .... ....|--- .... ....|--- .... ....
....|..|C-3 .... ....|--- .... ....|D#4 .... ....
....|..|--- .... ....|--- .... ....|--- .... ....
....|..|R-- .... ....|D#5 .... ....|C-4 .... ....
....|..|--- .... ....|R-- .... ....|--- .... ....
....|..|A#2 .... ....|--- .... ....|--- .... ....
....|..|--- .... ....|--- .... ....|--- .... ....
....|..|C-3 .... ....|--- .... ....|F-4 .... ....
....|..|--- .... ....|--- .... ....|--- .... ....
....|..|C-3 .... ....|D#5 .... ....|G-4 .... ....
....|..|--- .... ....|--- .... ....|--- .... ....
....|..|A#2 .... ....|D-5 .... ....|--- .... ....
....|..|--- .... ....|--- .... ....|--- .... ....
....|..|--- .... ....|--- .... ....|--- .... ....
....|..|--- .... ....|--- .... ....|--- .... ....
....|..|C-3 .... ....|D-5 .... ....|F-4 .... ....
....|..|--- .... ....|--- .... ....|R-- .... ....
....|..|--- .... ....|D#5 .... ....|--- .... ....
....|..|--- .... ....|--- .... ....|--- .... ....
....|..|C-3 .... ....|--- .... ....|--- .... ....
....|..|--- .... ....|--- .... ....|--- .... ....
....|..|--- .... ....|--- .... ....|--- .... ....
....|..|--- .... ....|--- .... ....|G-4 .... ....
....|..|C-3 .... ....|D#5 .... ....|F-4 .... ....
....|..|--- .... ....|R-- .... ....|--- .... ....
....|..|A#2 .... ....|--- .... ....|--- .... ....
....|..|--- .... ....|--- .... ....|--- .... ....
....|..|G-2 .... ....|--- .... ....|D#4 .... ....
....|..|--- .... ....|--- .... ....|--- .... ....
....|..|C-3 .... ....|D#5 .... ....|F-4 .... ....
....|..|--- .... ....|R-- .... ....|--- .... ....
....|..|R-- .... ....|--- .... ....|R-- .... ....
....|..|--- .... ....|--- .... ....|--- .... ....
....|..|C-3 .... ....|--- .... ....|F-4 .... ....
....|..|--- .... ....|--- .... ....|--- .... ....
....|..|R-- .... ....|D#5 .... ....|--- .... ....
....|..|--- .... ....|R-- .... ....|--- .... ....
....|..|A#2 .... ....|--- .... ....|F-4 .... ....
....|..|--- .... ....|--- .... ....|--- .... ....
....|..|C-3 .... ....|--- .... ....|G-4 .... ....
....|..|--- .... ....|--- .... ....|--- .... ....
....|..|C-3 .... ....|D#5 .... ....|--- .... ....
....|..|--- .... ....|--- .... ....|--- .... ....
....|..|A#2 .... ....|D-5 .... ....|--- .... ....
....|..|--- .... ....|--- .... ....|--- .... ....
....|..|--- .... ....|--- .... ....|--- .... ....
....|..|--- .... ....|--- .... ....|--- .... ....
....|..|C-3 .... ....|D-5 .... ....|A#4 .... ....
....|..|--- .... ....|--- .... ....|--- .... ....
....|..|--- .... ....|D#5 .... ....|R-- .... ....
....|..|--- .... ....|--- .... ....|--- .... ....
....|..|C-3 .... ....|--- .... ....|C-5 .... ....
....|..|--- .... ....|--- .... ....|--- .... ....
....|..|--- .... ....|--- .... ....|R-- .... ....
....|..|--- .... ....|--- .... ....|--- .... ....
....|..|C-3 .... ....|D#5 .... ....|G-4 .... ....
....|..|--- .... ....|R-- .... ....|--- .... ....
....|..|A#2 .... ....|--- .... ....|--- .... ....
....|..|--- .... ....|--- .... ....|--- .... ....
....|..|G-2 .... ....|--- .... ....|--- .... ....
....|..|--- .... ....|--- .... ....|R-- .... ....
....|..|C-3 .... ....|D#5 .... ....|A#4 .... ....
....|..|--- .... ....|R-- .... ....|--- .... ....
....|..|R-- .... ....|--- .... ....|R-- .... ....
....|..|--- .... ....|--- .... ....|--- .... ....
....|..|C-3 .... ....|--- .... ....|A#4 .... ....
....|..|--- .... ....|--- .... ....|--- .... ....
....|..|R-- .... ....|D#5 .... ....|F-4 .... ....
....|..|--- .... ....|R-- .... ....|--- .... ....
....|..|A#2 .... ....|--- .... ....|--- .... ....
....|..|--- .... ....|--- .... ....|--- .... ....
....|..|C-3 .... ....|--- .... ....|D#4 .... ....
....|..|--- .... ....|--- .... ....|--- .... ....
....|..|C-3 .... ....|D#5 .... ....|R-- .... ....
....|..|--- .... ....|--- .... ....|--- .... ....
....|..|A#2 .... ....|D-5 .... ....|F-4 .... ....
....|..|--- .... ....|--- .... ....|--- .... ....
....|..|--- .... ....|--- .... ....|F-4 .... ....
....|..|--- .... ....|--- .... ....|--- .... ....
....|..|C-3 .... ....|D-5 .... ....|R-- .... ....
....|..|--- .... ....|--- .... ....|--- .... ....
....|..|--- .... ....|D#5 .... ....|F-4 .... ....
....|..|--- .... ....|--- .... ....|--- .... ....
....|..|C-3 .... ....|--- .... ....|--- .... ....
....|..|--- .... ....|--- .... ....|--- .... ....
....|..|--- .... ....|--- .... ....|--- .... ....
....|..|--- .... ....|--- .... ....|--- .... ....
....|..|C-3 .... ....|D#5 .... ....|D#4 .... ....
....|..|--- .... ....|R-- .... ....|--- .... ....
....|..|A#2 .... ....|--- .... ....|R-- .... ....
....|..|--- .... ....|--- .... ....|--- .... ....
....|..|G-2 .... ....|--- .... ....|F-4 .... ....
....|..|--- .... ....|--- .... ....|--- .... ....
....|..|C-3 .... ....|D#5 .... ....|C-4 .... ....
....|..|--- .... ....|R-- .... ....|--- .... ....
....|..|R-- .... ....|--- .... ....|R-- .... ....
....|..|--- .... ....|--- .... ....|--- .... ....
....|..|--- .... ....|--- .... ....|F-4 .... ....
....|..|--- .... ....|--- .... ....|--- .... ....
....|..|F-2 .... ....|D#5 .... ....|--- .... ....
....|..|--- .... ....|R-- .... ....|--- .... ....
....|..|F-2 .... ....|--- .... ....|--- .... ....
....|..|--- .... ....|--- .... ....|--- .... ....
....|..|F#2 .... ....|--- .... ....|--- .... ....
....|..|--- .... ....|--- .... ....|--- .... ....
....|..|F#2 .... ....|D#5 .... ....|D#4 .... ....
....|..|--- .... ....|R-- .... ....|--- .... ....
....|..|G-2 .... ....|--- .... ....|R-- .... ....
....|..|--- .... ....|--- .... ....|--- .... ....
....|..|G#2 .... ....|--- .... ....|--- .... ....
....|..|--- .... ....|--- .... ....|--- .... ....

[Pattern14]
....|..|A#2 1... ....|D-5 2... ....|--- .... ....
....|..|--- .... ....|--- .... ....|--- .... ....
....|..|--- .... ....|--- .... ....|--- .... ....
....|..|--- .... ....|--- .... ....|--- .... ....
....|..|A#2 .... ....|R-- .... ....|--- .... ....
....|..|--- .... ....|--- .... ....|--- .... ....
....|..|--- .... ....|--- .... ....|--- .... ....
....|..|--- .... ....|--- .... ....|--- .... ....
....|..|A#2 .... ....|D-5 .... ....|C-4 .... ....
....|..|--- .... ....|R-- .... ....|--- .... ....
....|..|F-2 .... ....|--- .... ....|R-- .... ....
....|..|--- .... ....|--- .... ....|--- .... ....
....|..|--- .... ....|--- .... ....|--- .... ....
....|..|--- .... ....|--- .... ....|--- .... ....
....|..|A#2 .... ....|D-5 .... ....|C-4 .... ....
....|..|--- .... ....|R-- .... ....|--- .... ....
....|..|R-- .... ....|--- .... ....|D#4 .... ....
....|..|--- .... ....|--- .... ....|--- .... ....
....|..|A#2 .... ....|--- .... ....|F-4 .... ....
....|..|--- .... ....|--- .... ....|--- .... ....
....|..|R-- .... ....|--- .... ....|R-- .... ....
....|..|--- .... ....|--- .... ....|--- .... ....
....|..|A#2 .... ....|--- .... ....|G#4 .... ....
....|..|--- .... ....|--- .... ....|--- .... ....
....|..|R-- .... ....|--- .... ....|R-- .... ....
....|..|--- .... ....|--- .... ....|--- .... ....
....|..|A#2 .... ....|D-5 .... ....|A#4 .... ....
....|..|--- .... ....|--- .... ....|--- .... ....
....|..|G#2 .... ....|C-5 .... ....|--- .... ....
....|..|--- .... ....|--- .... ....|--- .... ....
....|..|--- .... ....|A#3 .... ....|--- .... ....
....|..|--- .... ....|--- .... ....|--- .... ....
....|..|A#2 .... ....|--- .... ....|G#4 .... ....
....|..|--- .... ....|--- .... ....|--- .... ....
....|..|--- .... ....|--- .... ....|A#4 .... ....
....|..|--- .... ....|--- .... ....|--- .... ....
....|..|A#2 .... ....|--- .... ....|R-- .... ....
....|..|--- .... ....|--- .... ....|--- .... ....
....|..|--- .... ....|R-- .... ....|--- .... ....
....|..|--- .... ....|--- .... ....|--- .... ....
....|..|A#2 .... ....|--- .... ....|D#4 .... ....
....|..|--- .... ....|--- .... ....|--- .... ....
....|..|G#2 .... ....|--- .... ....|F-4 .... ....
....|..|--- .... ....|--- .... ....|--- .... ....
....|..|F-2 .... ....|--- .... ....|G#4 .... ....
....|..|--- .... ....|--- .... ....|--- .... ....
....|..|A#2 .... ....|--- .... ....|A#4 .... ....
....|..|--- .... ....|--- .... ....|--- .... ....
....|..|R-- .... ....|D-5 .... ....|R-- .... ....
....|..|--- .... ....|R-- .... ....|--- .... ....
....|..|A#2 .... ....|--- .... ....|A#4 .... ....
....|..|--- .... ....|--- .... ....|--- .... ....
....|..|R-- .... ....|--- .... ....|--- .... ....
....|..|--- .... ....|--- .... ....|--- .... ....
....|..|F-2 .... ....|D-5 .... ....|--- .... ....
....|..|--- .... ....|R-- .... ....|A#4 .... ....
....|..|--- .... ....|--- .... ....|C-5 .... ....
....|..|--- .... ....|--- .... ....|--- .... ....
....|..|--- .... ....|--- .... ....|--- .... ....
....|..|--- .... ....|--- .... ....|--- .... ....
....|..|--- .... ....|--- .... ....|D#5 .... ....
....|..|--- .... ....|--- .... ....|--- .... ....
....|..|--- .... ....|--- .... ....|R-- .... ....
....|..|--- .... ....|--- .... ....|--- .... ....
....|..|C-3 .... ....|D-5 .... ....|--- .... ....
....|..|--- .... ....|--- .... ....|--- .... ....
....|..|--- .... ....|D#5 .... ....|--- .... ....
....|..|--- .... ....|--- .... ....|--- .... ....
....|..|C-3 .... ....|--- .... ....|D-4 .... ....
....|..|--- .... ....|--- .... ....|--- .... ....
....|..|--- .... ....|--- .... ....|F-4 .... ....
....|..|--- .... ....|--- .... ....|--- .... ....
....|..|C-3 .... ....|D#5 .... ....|G-4 .... ....
....|..|--- .... ....|R-- .... ....|--- .... ....
....|..|A#2 .... ....|--- .... ....|A#4 .... ....
....|..|--- .... ....|--- .... ....|--- .... ....
....|..|G-2 .... ....|--- .... ....|R-- .... ....
....|..|--- .... ....|--- .... ....|--- .... ....
....|..|C-3 .... ....|D#5 .... ....|C-5 .... ....
....|..|--- .... ....|R-- .... ....|--- .... ....
....|..|R-- .... ....|--- .... ....|--- .... ....
....|..|--- .... ....|--- .... ....|--- .... ....
....|..|C-3 .... ....|--- .... ....|--- .... ....
....|..|--- .... ....|--- .... ....|--- .... ....
....|..|R-- .... ....|D#5 .... ....|--- .... ....
....|..|--- .... ....|R-- .... ....|--- .... ....
....|..|A#2 .... ....|--- .... ....|F-4 .... ....
....|..|--- .... ....|--- .... ....|--- .... ....
....|..|C-3 .... ....|--- .... ....|G-4 .... ....
....|..|--- .... ....|--- .... ....|--- .... ....
....|..|C-3 .... ....|D#5 .... ....|--- .... ....
....|..|--- .... ....|--- .... ....|--- .... ....
....|..|A#2 .... ....|D-5 .... ....|--- .... ....
....|..|--- .... ....|--- .... ....|--- .... ....
....|..|--- .... ....|--- .... ....|--- .... ....
....|..|--- .... ....|--- .... ....|R-- .... ....
....|..|C-3 .... ....|D-5 .... ....|--- .... ....
....|..|--- .... ....|--- .... ....|--- .... ....
....|..|--- .... ....|D#5 .... ....|--- .... ....
....|..|--- .... ....|--- .... ....|--- .... ....
....|..|C-3 .... ....|--- .... ....|A#4 .... ....
....|..|--- .... ....|--- .... ....|--- .... ....
....|..|--- .... ....|--- .... ....|--- .... ....
....|..|--- .... ....|--- .... ....|--- .... ....
....|..|C-3 .... ....|D#5 .... ....|F-4 .... ....
....|..|--- .... ....|--- .... ....|--- .... ....
....|..|A#2 .... ....|R-- .... ....|--- .... ....
....|..|--- .... ....|--- .... ....|--- .... ....
....|..|G-2 .... ....|--- .... ....|D#4 .... ....
....|..|--- .... ....|--- .... ....|--- .... ....
....|..|C-3 .... ....|--- .... ....|F-4 .... ....
....|..|--- .... ....|--- .... ....|--- .... ....
....|..|R-- .... ....|D#5 .... ....|R-- .... ....
....|..|--- .... ....|R-- .... ....|--- .... ....
....|..|--- .... ....|--- .... ....|F-4 .... ....
....|..|--- .... ....|--- .... ....|--- .... ....
....|..|--- .... ....|--- .... ....|--- .... ....
....|..|--- .... ....|--- .... ....|--- .... ....
....|..|--- .... ....|D#5 .... ....|--- .... ....
....|..|--- .... ....|R-- .... ....|--- .... ....
....|..|C-3 .... ....|--- .... ....|D#4 .... ....
....|..|--- .... ....|--- .... ....|--- .... ....
....|..|C-3 .... ....|--- .... ....|C-4 .... ....
....|..|--- .... ....|--- .... ....|--- .... ....
....|..|C-3 .... ....|--- .... ....|--- .... ....
....|..|--- .... ....|--- .... ....|--- .... ....
....|..|--- .... ....|--- .... ....|R-- .... ....
....|..|--- .... ....|--- .... ....|--- .... ....

[Pattern15]
....|..|D-3 1... ....|E-5 2... ....|--- .... ....
....|..|--- .... ....|--- .... ....|--- .... ....
....|..|--- .... ....|F-5 .... ....|--- .... ....
....|..|--- .... ....|--- .... ....|--- .... ....
....|..|D-3 .... ....|--- .... ....|E-5 .... ....
....|..|--- .... ....|--- .... ....|--- .... ....
....|..|D-3 .... ....|--- .... ....|--- .... ....
....|..|--- .... ....|--- .... ....|--- .... ....
....|..|D-3 .... ....|F-5 .... ....|E-5 .... ....
....|..|--- .... ....|--- .... ....|--- .... ....
....|..|--- .... ....|R-- .... ....|A#4 .... ....
....|..|--- .... ....|--- .... ....|--- .... ....
....|..|D-3 .... ....|--- .... ....|R-- .... ....
....|..|--- .... ....|--- .... ....|--- .... ....
....|..|D-3 .... ....|--- .... ....|E-5 .... ....
....|..|--- .... ....|--- .... ....|--- .... ....
....|..|D-3 .... ....|F-5 .... ....|--- .... ....
....|..|--- .... ....|R-- .... ....|--- .... ....
....|..|D-3 .... ....|--- .... ....|--- .... ....
....|..|--- .... ....|--- .... ....|--- .... ....
....|..|--- .... ....|--- .... ....|--- .... ....
....|..|--- .... ....|--- .... ....|--- .... ....
....|..|D-3 .... ....|F-5 .... ....|D-5 .... ....
....|..|--- .... ....|R-- .... ....|--- .... ....
....|..|D-3 .... ....|--- .... ....|C-5 .... ....
....|..|--- .... ....|--- .... ....|--- .... ....
....|..|D-3 .... ....|F-5 .... ....|D-5 .... ....
....|..|--- .... ....|R-- .... ....|--- .... ....
....|..|D-3 .... ....|--- .... ....|--- .... ....
....|..|--- .... ....|--- .... ....|--- .... ....
....|..|D-3 .... ....|--- .... ....|--- .... ....
....|..|--- .... ....|--- .... ....|--- .... ....
....|..|D-3 .... ....|F#5 .... ....|D-4 .... ....
....|..|--- .... ....|--- .... ....|--- .... ....
....|..|--- .... ....|--- .... ....|E-5 .... ....
....|..|--- .... ....|--- .... ....|--- .... ....
....|..|D-3 .... ....|--- .... ....|--- .... ....
....|..|--- .... ....|--- .... ....|--- .... ....
....|..|D-3 .... ....|--- .... ....|--- .... ....
....|..|--- .... ....|--- .... ....|--- .... ....
....|..|D-3 .... ....|F#5 .... ....|E-5 .... ....
....|..|--- .... ....|--- .... ....|--- .... ....
....|..|--- .... ....|R-- .... ....|D-5 .... ....
....|..|--- .... ....|--- .... ....|--- .... ....
....|..|D-3 .... ....|--- .... ....|R-- .... ....
....|..|--- .... ....|--- .... ....|--- .... ....
....|..|D-3 .... ....|--- .... ....|E-5 .... ....
....|..|--- .... ....|--- .... ....|--- .... ....
....|..|R-- .... ....|F#5 .... ....|--- .... ....
....|..|--- .... ....|R-- .... ....|--- .... ....
....|..|D-3 .... ....|--- .... ....|--- .... ....
....|..|--- .... ....|--- .... ....|--- .... ....
....|..|D-3 .... ....|--- .... ....|E-5 .... ....
....|..|--- .... ....|--- .... ....|--- .... ....
....|..|D-3 .... ....|F#5 .... ....|D-5 .... ....
....|..|--- .... ....|R-- .... ....|--- .... ....
....|..|D-3 .... ....|--- .... ....|R-- .... ....
....|..|--- .... ....|--- .... ....|--- .... ....
....|..|D-3 .... ....|--- .... ....|B-4 .... ....
....|..|--- .... ....|--- .... ....|--- .... ....
....|..|--- .... ....|--- .... ....|D-4 .... ....
....|..|--- .... ....|--- .... ....|--- .... ....
....|..|--- .... ....|--- .... ....|--- .... ....
....|..|--- .... ....|--- .... ....|--- .... ....
....|..|G-2 .... ....|D-4 .... ....|G-1 .... ....
....|..|--- .... ....|--- .... ....|--- .... ....
....|..|G-2 .... ....|D-4 .... ....|G-1 .... ....
....|..|--- .... ....|--- .... ....|--- .... ....
....|..|R-- .... ....|R-- .... ....|R-- .... ....
....|..|--- .... ....|--- .... ....|--- .... ....
....|..|F-2 .... ....|D-4 .... ....|F-1 .... ....
....|..|--- .... ....|--- .... ....|--- .... ....
....|..|R-- .... ....|R-- .... ....|R-- .... ....
....|..|--- .... ....|--- .... ....|--- .... ....
....|..|G-2 .... ....|D-4 .... ....|G-1 .... ....
....|..|--- .... ....|--- .... ....|--- .... ....
....|..|R-- .... ....|R-- .... ....|R-- .... ....
....|..|--- .... ....|--- .... ....|--- .... ....
....|..|G-2 .... ....|G-3 .... ....|--- .... ....
....|..|--- .... ....|--- .... ....|--- .... ....
....|..|A#2 .... ....|G-4 .... ....|A#1 .... ....
....|..|--- .... ....|--- .... ....|--- .... ....
....|..|--- .... ....|R-- .... ....|R-- .... ....
....|..|--- .... ....|--- .... ....|--- .... ....
....|..|C-3 .... ....|G-4 .... ....|C-2 .... ....
....|..|--- .... ....|--- .... ....|--- .... ....
....|..|--- .... ....|R-- .... ....|R-- .... ....
....|..|--- .... ....|--- .... ....|--- .... ....
....|..|A#2 .... ....|G-4 .... ....|A#1 .... ....
....|..|--- .... ....|--- .... ....|--- .... ....
....|..|--- .... ....|--- .... ....|--- .... ....
....|..|--- .... ....|--- .... ....|--- .... ....
....|..|--- .... ....|--- .... ....|--- .... ....
....|..|--- .... ....|--- .... ....|--- .... ....
....|..|F-2 .... ....|D-4 .... ....|R-- .... ....
....|..|--- .... ....|--- .... ....|--- .... ....
....|..|G-2 .... ....|D-4 .... ....|G-1 .... ....
....|..|--- .... ....|--- .... ....|--- .... ....
....|..|G-2 .... ....|D-4 .... ....|G-1 .... ....
....|..|--- .... ....|--- .... ....|--- .... ....
....|..|R-- .... ....|R-- .... ....|R-- .... ....
....|..|--- .... ....|--- .... ....|--- .... ....
....|..|F-2 .... ....|D-4 .... ....|F-1 .... ....
....|..|--- .... ....|--- .... ....|--- .... ....
....|..|R-- .... ....|R-- .... ....|R-- .... ....
....|..|--- .... ....|--- .... ....|--- .... ....
....|..|G-2 .... ....|D-4 .... ....|G-1 .... ....
....|..|--- .... ....|--- .... ....|--- .... ....
....|..|R-- .... ....|R-- .... ....|R-- .... ....
....|..|--- .... ....|--- .... ....|--- .... ....
....|..|G-2 .... ....|G-3 .... ....|--- .... ....
....|..|--- .... ....|--- .... ....|--- .... ....
....|..|A#2 .... ....|G-4 .... ....|A#1 .... ....
....|..|--- .... ....|--- .... ....|--- .... ....
....|..|--- .... ....|R-- .... ....|R-- .... ....
....|..|--- .... ....|--- .... ....|--- .... ....
....|..|C-3 .... ....|G-4 .... ....|C-2 .... ....
....|..|--- .... ....|--- .... ....|--- .... ....
....|..|--- .... ....|R-- .... ....|R-- .... ....
....|..|--- .... ....|--- .... ....|--- .... ....
....|..|A#2 .... ....|G-4 .... ....|A#1 .... ....
....|..|--- .... ....|--- .... ....|--- .... ....
....|..|--- .... ....|--- .... ....|--- .... ....
....|..|--- .... ....|--- .... ....|--- .... ....
....|..|--- .... ....|--- .... ....|--- .... ....
....|..|--- .... ....|--- .... ....|--- .... ....
....|..|F-2 .... ....|D-4 .... ....|R-- .... ....
....|..|--- .... ....|--- .... ....|--- .... ....

[Pattern16]
....|..|G-2 1... ....|D-4 .2.. ....|G-1 1... ....
....|..|--- .... ....|--- .... ....|--- .... ....
....|..|G-2 .... ....|D-4 .... ....|G-1 .... ....
....|..|--- .... ....|--- .... ....|--- .... ....
....|..|R-- .... ....|R-- .... ....|R-- .... ....
....|..|--- .... ....|--- .... ....|--- .... ....
....|..|F-2 .... ....|D-4 .... ....|F-1 .... ....
....|..|--- .... ....|--- .... ....|--- .... ....
....|..|R-- .... ....|R-- .... ....|R-- .... ....
....|..|--- .... ....|--- .... ....|--- .... ....
....|..|G-2 .... ....|D-4 .... ....|G-1 .... ....
....|..|--- .... ....|--- .... ....|--- .... ....
....|..|R-- .... ....|R-- .... ....|R-- .... ....
....|..|--- .... ....|--- .... ....|--- .... ....
....|..|G-2 .... ....|G-3 .... ....|--- .... ....
....|..|--- .... ....|--- .... ....|--- .... ....
....|..|A#2 .... ....|G-4 .... ....|A#1 .... ....
....|..|--- .... ....|--- .... ....|--- .... ....
....|..|--- .... ....|R-- .... ....|R-- .... ....
....|..|--- .... ....|--- .... ....|--- .... ....
....|..|C-3 .... ....|G-4 .... ....|C-2 .... ....
....|..|--- .... ....|--- .... ....|--- .... ....
....|..|--- .... ....|R-- .... ....|R-- .... ....
....|..|--- .... ....|--- .... ....|--- .... ....
....|..|A#2 .... ....|G-4 .... ....|A#1 .... ....
....|..|--- .... ....|--- .... ....|--- .... ....
....|..|--- .... ....|--- .... ....|--- .... ....
....|..|--- .... ....|--- .... ....|--- .... ....
....|..|--- .... ....|--- .... ....|--- .... ....
....|..|--- .... ....|--- .... ....|--- .... ....
....|..|F-2 .... ....|D-4 .... ....|R-- .... ....
....|..|--- .... ....|--- .... ....|--- .... ....
....|..|G-2 .... ....|D-4 .... ....|G-1 .... ....
....|..|--- .... ....|--- .... ....|--- .... ....
....|..|G-2 .... ....|D-4 .... ....|G-1 .... ....
....|..|--- .... ....|--- .... ....|--- .... ....
....|..|R-- .... ....|R-- .... ....|R-- .... ....
....|..|--- .... ....|--- .... ....|--- .... ....
....|..|F-2 .... ....|D-4 .... ....|F-1 .... ....
....|..|--- .... ....|--- .... ....|--- .... ....
....|..|R-- .... ....|R-- .... ....|R-- .... ....
....|..|--- .... ....|--- .... ....|--- .... ....
....|..|G-2 .... ....|D-4 .... ....|G-1 .... ....
....|..|--- .... ....|--- .... ....|--- .... ....
....|..|--- .... ....|--- .... ....|--- .... ....
....|..|--- .... ....|--- .... ....|--- .... ....
....|..|--- .... ....|--- .... ....|--- .... ....
....|..|R-- .... ....|--- .... ....|R-- .... ....
....|..|C-2 .... ....|C-5 .... ....|C-3 .... ....
....|..|--- .... ....|--- .... ....|--- .... ....
....|..|C-2 .... ....|C-5 .... ....|C-3 .... ....
....|..|--- .... ....|--- .... ....|--- .... ....
....|..|C-1 .... ....|C-4 .... ....|C-2 .... ....
....|..|--- .... ....|--- .... ....|--- .... ....
....|..|C-1 .... ....|C-4 .... ....|C-2 .... ....
....|..|--- .... ....|--- .... ....|--- .... ....
....|..|C-2 .... ....|C-5 .... ....|C-3 .... ....
....|..|--- .... ....|--- .... ....|--- .... ....
....|..|E-2 .... ....|E-5 .... ....|C-5 .... ....
....|..|--- .... ....|--- .... ....|--- .... ....
....|..|--- .... ....|--- .... ....|--- .... ....
....|..|--- .... ....|--- .... ....|--- .... ....
....|..|--- .... ....|--- .... ....|--- .... ....
....|..|--- .... ....|--- .... ....|--- .... ....
....|..|G-2 .... ....|E-5 .... ....|C#5 .... ....
....|..|--- .... ....|--- .... ....|--- .... ....
....|..|R-- .... ....|F-5 .... ....|D-5 .... ....
....|..|--- .... ....|--- .... ....|--- .... ....
....|..|G-2 .... ....|--- .... ....|--- .... ....
....|..|--- .... ....|--- .... ....|--- .... ....
....|..|--- .... ....|--- .... ....|--- .... ....
....|..|--- .... ....|--- .... ....|--- .... ....
....|..|G-2 .... ....|R-- .... ....|R-- .... ....
....|..|--- .... ....|--- .... ....|--- .... ....
....|..|R-- .... ....|D-4 .... ....|--- .... ....
....|..|--- .... ....|--- .... ....|--- .... ....
....|..|F-2 .... ....|D-4 .... ....|F-3 .... ....
....|..|--- .... ....|--- .... ....|--- .... ....
....|..|G-2 .... ....|D-4 .... ....|G-3 .... ....
....|..|--- .... ....|--- .... ....|--- .... ....
....|..|R-- .... ....|R-- .... ....|R-- .... ....
....|..|--- .... ....|--- .... ....|--- .... ....
....|..|G-2 .... ....|D-4 .... ....|G-3 .... ....
....|..|--- .... ....|--- .... ....|--- .... ....
....|..|R-- .... ....|R-- .... ....|R-- .... ....
....|..|--- .... ....|--- .... ....|--- .... ....
....|..|G-2 .... ....|G-3 .... ....|--- .... ....
....|..|--- .... ....|--- .... ....|--- .... ....
....|..|A#2 .... ....|G-4 .... ....|A#3 .... ....
....|..|--- .... ....|--- .... ....|--- .... ....
....|..|--- .... ....|R-- .... ....|R-- .... ....
....|..|--- .... ....|--- .... ....|--- .... ....
....|..|C-3 .... ....|G-4 .... ....|C-4 .... ....
....|..|--- .... ....|--- .... ....|--- .... ....
....|..|R-- .... ....|R-- .... ....|R-- .... ....
....|..|--- .... ....|--- .... ....|--- .... ....
....|..|G-2 .... ....|E-5 .... ....|C#5 .... ....
....|..|--- .... ....|--- .... ....|--- .... ....
....|..|R-- .... ....|F-5 .... ....|D-5 .... ....
....|..|--- .... ....|--- .... ....|--- .... ....
....|..|G-2 .... ....|--- .... ....|--- .... ....
....|..|--- .... ....|--- .... ....|--- .... ....
....|..|--- .... ....|--- .... ....|--- .... ....
....|..|--- .... ....|--- .... ....|--- .... ....
....|..|G-2 .... ....|R-- .... ....|R-- .... ....
....|..|--- .... ....|--- .... ....|--- .... ....
....|..|R-- .... ....|D-4 .... ....|--- .... ....
....|..|--- .... ....|--- .... ....|--- .... ....
....|..|F-2 .... ....|D-4 .... ....|F-3 .... ....
....|..|--- .... ....|--- .... ....|--- .... ....
....|..|G-2 .... ....|D-4 .... ....|G-3 .... ....
....|..|--- .... ....|--- .... ....|--- .... ....
....|..|R-- .... ....|R-- .... ....|R-- .... ....
....|..|--- .... ....|--- .... ....|--- .... ....
....|..|G-2 .... ....|D-4 .... ....|G-3 .... ....
....|..|--- .... ....|--- .... ....|--- .... ....
....|..|R-- .... ....|R-- .... ....|R-- .... ....
....|..|--- .... ....|--- .... ....|--- .... ....
....|..|G-2 .... ....|G-3 .... ....|--- .... ....
....|..|--- .... ....|--- .... ....|--- .... ....
....|..|A#2 .... ....|G-4 .... ....|A#3 .... ....
....|..|--- .... ....|--- .... ....|--- .... ....
....|..|--- .... ....|R-- .... ....|R-- .... ....
....|..|--- .... ....|--- .... ....|--- .... ....
....|..|C-3 .... ....|G-4 .... ....|C-4 .... ....
....|..|--- .... ....|--- .... ....|--- .... ....
....|..|R-- .... ....|R-- .... ....|R-- .... ....
....|..|--- .... ....|--- .... ....|--- .... ....

